<?xml version="1.0" encoding="utf-8"?>
<!-- Generator: Adobe Illustrator 22.1.0, SVG Export Plug-In . SVG Version: 6.00 Build 0)  -->
<svg version="1.1"  xmlns="http://www.w3.org/2000/svg" xmlns:xlink="http://www.w3.org/1999/xlink" x="0px" y="0px"
	 viewBox="0 0 17.6 33.8" style="enable-background:new 0 0 17.6 33.8;" xml:space="preserve">
<path d="M15.9,17.3L0.4,1.7C0,1.3,0,0.7,0.4,0.3c0.4-0.4,1-0.4,1.4,0l15.5,15.6c0.4,0.4,0.4,1,0,1.4C16.9,17.7,16.3,17.7,15.9,17.3z
	"/>
<path d="M0.3,32.2l15.6-15.6c0.4-0.4,1-0.4,1.4,0s0.4,1,0,1.4L1.7,33.5c-0.4,0.4-1,0.4-1.4,0C-0.1,33.1-0.1,32.5,0.3,32.2z"/>
</svg>
