<?xml version="1.0" encoding="utf-8"?>
<!-- Generator: Adobe Illustrator 22.1.0, SVG Export Plug-In . SVG Version: 6.00 Build 0)  -->
<svg version="1.1"  xmlns="http://www.w3.org/2000/svg" xmlns:xlink="http://www.w3.org/1999/xlink" x="0px" y="0px"
	 viewBox="0 0 17.6 33.8" style="enable-background:new 0 0 17.6 33.8;" xml:space="preserve">
<path d="M0.3,17.3c-0.4-0.4-0.4-1,0-1.4L15.8,0.3c0.4-0.4,1-0.4,1.4,0c0.4,0.4,0.4,1,0,1.4L1.7,17.3C1.3,17.7,0.7,17.7,0.3,17.3z"/>
<path d="M17.3,33.5c-0.4,0.4-1,0.4-1.4,0L0.3,18c-0.4-0.4-0.4-1,0-1.4c0.4-0.4,1-0.4,1.4,0l15.6,15.6C17.7,32.5,17.7,33.1,17.3,33.5
	z"/>
</svg>
