<?xml version="1.0" encoding="utf-8"?>
<!-- Generator: Adobe Illustrator 22.1.0, SVG Export Plug-In . SVG Version: 6.00 Build 0)  -->
<svg version="1.1"  xmlns="http://www.w3.org/2000/svg" xmlns:xlink="http://www.w3.org/1999/xlink" x="0px" y="0px"
	 viewBox="0 0 13.1 16" style="enable-background:new 0 0 13.1 16;" xml:space="preserve">
<path d="M3.4,0.7v2.2H2.2c-0.4,0-0.7,0.3-0.7,0.7v2.2H0.7C0.3,5.8,0,6.1,0,6.5s0.3,0.7,0.7,0.7h0.7v8c0,0.4,0.3,0.7,0.7,0.7H5h3h2.9
	c0.4,0,0.7-0.3,0.7-0.7v-8h0.7c0.4,0,0.7-0.3,0.7-0.7s-0.2-0.7-0.6-0.7h-0.7V3.6c0-0.4-0.3-0.7-0.7-0.7H9.7V0.7C9.7,0.3,9.4,0,9,0
	H4.1C3.7,0,3.4,0.3,3.4,0.7z M4.4,14.5H2.9V7.3h1.5V14.5z M7.3,14.5H5.8V7.3h1.5V14.5z M10.2,14.5H8.7V7.3h1.5V14.5z M4.8,1.5h3.4V3
	H4.8V1.5z M9,4.4h1.2v1.4H8H5.1H2.9V4.4h1.2H9z"/>
</svg>
