<?xml version="1.0" encoding="utf-8"?>
<!-- Generator: Adobe Illustrator 22.1.0, SVG Export Plug-In . SVG Version: 6.00 Build 0)  -->
<svg version="1.1"  xmlns="http://www.w3.org/2000/svg" xmlns:xlink="http://www.w3.org/1999/xlink" x="0px" y="0px"
	 viewBox="0 0 14.1 16" style="enable-background:new 0 0 14.1 16;" xml:space="preserve">
<path d="M14.1,4.7C14.1,2.1,12,0,9.4,0H3.5H1.5C0.7,0,0,0.7,0,1.5c0,0.8,0.7,1.5,1.5,1.5h0.6v10.2H1.5c-0.8,0-1.5,0.7-1.5,1.5
	S0.7,16,1.5,16h2.1h5.9c2.6,0,4.7-2.1,4.7-4.7c0-1.3-0.5-2.4-1.3-3.3C13.6,7.2,14.1,6,14.1,4.7z M9.4,6.5H5V2.9h4.4
	c1,0,1.8,0.8,1.8,1.8S10.4,6.5,9.4,6.5z M9.4,13.1H5V9.5h4.4c1,0,1.8,0.8,1.8,1.8C11.2,12.3,10.4,13.1,9.4,13.1z"/>
</svg>
