<?xml version="1.0" encoding="utf-8"?>
<!-- Generator: Adobe Illustrator 22.1.0, SVG Export Plug-In . SVG Version: 6.00 Build 0)  -->
<svg version="1.1"  xmlns="http://www.w3.org/2000/svg" xmlns:xlink="http://www.w3.org/1999/xlink" x="0px" y="0px"
	 viewBox="0 0 16 13.1" style="enable-background:new 0 0 16 13.1;" xml:space="preserve">
<path d="M0.7,1.5h14.5c0.4,0,0.7-0.3,0.7-0.7S15.7,0,15.3,0H0.7C0.3,0,0,0.3,0,0.7S0.3,1.5,0.7,1.5z"/>
<path d="M2.7,2.9c-0.4,0-0.7,0.3-0.7,0.7s0.3,0.7,0.7,0.7h10.7c0.4,0,0.7-0.3,0.7-0.7s-0.3-0.7-0.7-0.7H2.7z"/>
<path d="M15.3,5.8H0.7C0.3,5.8,0,6.1,0,6.5c0,0.4,0.3,0.7,0.7,0.7h14.5c0.4,0,0.7-0.3,0.7-0.7C16,6.1,15.7,5.8,15.3,5.8z"/>
<path d="M15.3,11.6H0.7C0.3,11.6,0,12,0,12.4c0,0.4,0.3,0.7,0.7,0.7h14.5c0.4,0,0.7-0.3,0.7-0.7C16,12,15.7,11.6,15.3,11.6z"/>
<path d="M13.3,10.2c0.4,0,0.7-0.3,0.7-0.7c0-0.4-0.3-0.7-0.7-0.7H2.7c-0.4,0-0.7,0.3-0.7,0.7c0,0.4,0.3,0.7,0.7,0.7H13.3z"/>
</svg>
