<?xml version="1.0" encoding="utf-8"?>
<!-- Generator: Adobe Illustrator 22.1.0, SVG Export Plug-In . SVG Version: 6.00 Build 0)  -->
<svg version="1.1"  xmlns="http://www.w3.org/2000/svg" xmlns:xlink="http://www.w3.org/1999/xlink" x="0px" y="0px"
	 viewBox="0 0 8.6 6.6" style="enable-background:new 0 0 8.6 6.6;" xml:space="preserve">

<path d="M8.6,1.3c0-0.1-0.1-0.3-0.2-0.4L7.7,0.2C7.6,0.1,7.5,0,7.4,0C7.2,0,7.1,0.1,7,0.2L3.3,3.8L1.7,2.2
	C1.6,2.1,1.4,2,1.3,2S1,2.1,0.9,2.2L0.2,2.9C0.1,3,0,3.2,0,3.3c0,0.1,0.1,0.3,0.2,0.4l2,2l0.8,0.8C3,6.6,3.2,6.6,3.3,6.6
	c0.1,0,0.3-0.1,0.4-0.2l0.8-0.8l4-4C8.6,1.6,8.6,1.4,8.6,1.3z"/>
</svg>
