<?xml version="1.0" encoding="utf-8"?>
<!-- Generator: Adobe Illustrator 22.1.0, SVG Export Plug-In . SVG Version: 6.00 Build 0)  -->
<svg version="1.1"  xmlns="http://www.w3.org/2000/svg" xmlns:xlink="http://www.w3.org/1999/xlink" x="0px" y="0px"
	 viewBox="0 0 18.1 20" style="enable-background:new 0 0 18.1 20;" xml:space="preserve">
<path d="M18.1,4.5c-0.1-1.2-0.7-2.3-1.7-3.1L15.9,1C15.1,0.4,14,0,13,0c-1.4,0-2.7,0.6-3.6,1.7L1,12.1c-0.8,1-1.1,2.1-1,3.4
	c0.1,1.2,0.7,2.3,1.7,3.1L2.2,19c0.8,0.7,1.8,1,2.9,1c0.2,0,0.3,0,0.5,0c1.2-0.1,2.3-0.7,3.1-1.7c0,0,0,0,5.7-7
	c1-1.2,0.8-3.1-0.4-4.1L13.6,7c-0.5-0.4-1.2-0.6-1.8-0.6c-0.9,0-1.7,0.4-2.3,1.1l-5.7,7c-0.4,0.5-0.3,1.1,0.2,1.5
	c0.2,0.2,0.4,0.2,0.7,0.2c0.3,0,0.6-0.1,0.8-0.4l5.7-7c0.1-0.2,0.4-0.3,0.6-0.3c0.2,0,0.3,0.1,0.5,0.2l0.3,0.2
	c0.2,0.1,0.3,0.3,0.3,0.5s0,0.4-0.2,0.6L7,17c-0.5,0.6-1.2,0.9-1.9,0.9c-0.6,0-1.1-0.2-1.5-0.5L3,16.9c-0.5-0.4-0.8-1-0.9-1.6
	c-0.1-0.7,0.1-1.3,0.5-1.8L11.1,3c0.5-0.6,1.2-0.9,1.9-0.9c0.6,0,1.1,0.2,1.5,0.5l0.5,0.4c1.1,0.9,1.2,2.4,0.4,3.4
	c-0.2,0.2-0.3,0.5-0.2,0.8c0,0.3,0.2,0.5,0.4,0.7c0.2,0.2,0.4,0.2,0.7,0.2c0.3,0,0.6-0.1,0.8-0.4C17.9,7,18.2,5.8,18.1,4.5z"/>
</svg>
