<?xml version="1.0" encoding="utf-8"?>
<!-- Generator: Adobe Illustrator 22.1.0, SVG Export Plug-In . SVG Version: 6.00 Build 0)  -->
<svg version="1.1"  xmlns="http://www.w3.org/2000/svg" xmlns:xlink="http://www.w3.org/1999/xlink" x="0px" y="0px"
	 viewBox="0 0 14 16" style="enable-background:new 0 0 14 16;" xml:space="preserve">
<path d="M13.7,3.8L7.3,0.1C7.1,0,6.9,0,6.7,0.1L0.3,3.8C0.1,3.9,0,4.1,0,4.3v7.4c0,0.2,0.1,0.4,0.3,0.5l6.4,3.7
	c0.2,0.1,0.4,0.1,0.6,0l6.4-3.7c0.2-0.1,0.3-0.3,0.3-0.5V4.3C14,4.1,13.9,3.9,13.7,3.8z M12.8,11.3L7,14.7l-5.8-3.3V4.7L7,1.3
	l5.8,3.3V11.3z M4.5,6.9L3.4,8l1.1,1.1c0.2,0.2,0.2,0.6,0,0.9c-0.2,0.2-0.6,0.2-0.9,0L2,8.4C1.8,8.2,1.8,7.8,2,7.6L3.6,6
	c0.2-0.2,0.6-0.2,0.9,0C4.7,6.2,4.7,6.6,4.5,6.9z M9.5,9.1L10.7,8L9.5,6.9C9.3,6.6,9.3,6.2,9.5,6c0.2-0.2,0.6-0.2,0.9,0L12,7.6
	c0.2,0.2,0.2,0.6,0,0.9L10.4,10c-0.2,0.2-0.6,0.2-0.9,0C9.3,9.8,9.3,9.4,9.5,9.1z M5.4,9.9l2.2-4.4c0.2-0.3,0.5-0.4,0.8-0.3
	c0.3,0.2,0.4,0.5,0.3,0.8l-2.2,4.4c-0.2,0.3-0.5,0.4-0.8,0.3C5.3,10.6,5.2,10.2,5.4,9.9z"/>
</svg>
