<?xml version="1.0" encoding="utf-8"?>
<!-- Generator: Adobe Illustrator 22.1.0, SVG Export Plug-In . SVG Version: 6.00 Build 0)  -->
<svg version="1.1"  xmlns="http://www.w3.org/2000/svg" xmlns:xlink="http://www.w3.org/1999/xlink" x="0px" y="0px"
	 viewBox="0 0 15.9 16" style="enable-background:new 0 0 15.9 16;" xml:space="preserve">
<path d="M15.3,0.5L15.3,0.5C14.9,0.2,14.4,0,13.9,0c-0.6,0-1.1,0.2-1.5,0.6L5.3,8.4C5.3,8.5,5.2,8.6,5.2,8.7l-0.8,2.5
	c-0.1,0.3,0,0.6,0.1,0.9c0.2,0.2,0.5,0.4,0.8,0.4h0c0.1,0,0.3,0,0.4-0.1l2.4-1.1c0.1,0,0.2-0.1,0.2-0.2l7.1-7.8
	C16.2,2.5,16.1,1.3,15.3,0.5z M5.9,10.7l0.5-1.5l0,0l0.9,0.9l0,0L5.9,10.7z M14.4,2.4L8.3,9.1L7.4,8.2l6.1-6.6
	c0.1-0.1,0.3-0.2,0.5-0.2c0.2,0,0.3,0.1,0.4,0.2l0,0C14.6,1.8,14.6,2.2,14.4,2.4z"/>
<path d="M13.9,6.3c-0.4,0-0.7,0.3-0.7,0.7v5.8c0,1-0.8,1.7-1.7,1.7H3.1c-1,0-1.7-0.8-1.7-1.7V4.6c0-1,0.8-1.7,1.7-1.7h6
	c0.4,0,0.7-0.3,0.7-0.7S9.5,1.5,9.2,1.5h-6C1.4,1.5,0,2.9,0,4.6v8.3C0,14.6,1.4,16,3.1,16h8.3c1.7,0,3.1-1.4,3.1-3.1V7
	C14.6,6.7,14.3,6.3,13.9,6.3z"/>
</svg>
