<?xml version="1.0" encoding="utf-8"?>
<!-- Generator: Adobe Illustrator 22.1.0, SVG Export Plug-In . SVG Version: 6.00 Build 0)  -->
<svg version="1.1"  xmlns="http://www.w3.org/2000/svg" xmlns:xlink="http://www.w3.org/1999/xlink" x="0px" y="0px"
	 viewBox="0 0 19.6 16" style="enable-background:new 0 0 19.6 16;" xml:space="preserve">
<g>
	<g>
		<g>
			<path d="M18.8,0.8C18.3,0.3,17.7,0,17.1,0H2.5C1.8,0,1.2,0.3,0.8,0.8C0.3,1.3,0,1.9,0,2.6v10.7c0,0.7,0.3,1.4,0.8,1.9
				C1.3,15.7,2,16,2.7,16h14.2c0.7,0,1.4-0.3,1.9-0.8c0.5-0.5,0.8-1.2,0.8-1.9V2.6C19.6,1.9,19.3,1.3,18.8,0.8z M2.2,1.9
				c0.1-0.1,0.3-0.1,0.5-0.1h14.2c0.2,0,0.3,0,0.5,0.1c0.1,0.1,0.3,0.2,0.3,0.4L9.8,7.8L1.9,2.3C1.9,2.1,2.1,2,2.2,1.9z M17.8,13.3
				c0,0.2-0.1,0.5-0.3,0.6s-0.4,0.3-0.6,0.3H2.7c-0.2,0-0.5-0.1-0.6-0.3s-0.3-0.4-0.3-0.6v-9l7.5,5.2c0.1,0.1,0.3,0.2,0.5,0.2
				s0.4-0.1,0.5-0.2l7.5-5.2V13.3z"/>
		</g>
	</g>
</g>
</svg>
