<?xml version="1.0" encoding="utf-8"?>
<!-- Generator: Adobe Illustrator 22.1.0, SVG Export Plug-In . SVG Version: 6.00 Build 0)  -->
<svg version="1.1"  xmlns="http://www.w3.org/2000/svg" xmlns:xlink="http://www.w3.org/1999/xlink" x="0px" y="0px"
	 viewBox="0 0 28.9 15.5" style="enable-background:new 0 0 28.9 15.5;" xml:space="preserve">
<path d="M14.4,0C7.4,0,0.6,6.7,0.3,7C0.1,7.2,0,7.5,0,7.7C0,8,0.1,8.3,0.3,8.5c0.3,0.3,7.1,7,14.1,7c7,0,13.9-6.7,14.1-7
	c0.2-0.2,0.3-0.4,0.3-0.7c0-0.3-0.1-0.5-0.3-0.7C28.3,6.7,21.5,0,14.4,0z M14.4,13.4c-4.9,0-10-4-11.9-5.7C4.4,6,9.5,2,14.4,2
	s10,4,11.9,5.7C24.5,9.4,19.4,13.4,14.4,13.4z"/>
<path d="M10.8,7.7c0,2,1.6,3.7,3.7,3.7s3.7-1.6,3.7-3.7S16.5,4,14.5,4S10.8,5.7,10.8,7.7z M16.1,7.7c0,0.9-0.7,1.6-1.6,1.6
	c-0.9,0-1.6-0.7-1.6-1.6c0-0.9,0.7-1.6,1.6-1.6C15.3,6.1,16.1,6.8,16.1,7.7z"/>
</svg>
