<?xml version="1.0" encoding="utf-8"?>
<!-- Generator: Adobe Illustrator 22.1.0, SVG Export Plug-In . SVG Version: 6.00 Build 0)  -->
<svg version="1.1"  xmlns="http://www.w3.org/2000/svg" xmlns:xlink="http://www.w3.org/1999/xlink" x="0px" y="0px"
	 viewBox="0 0 18.6 16.5" style="enable-background:new 0 0 18.6 16.5;" xml:space="preserve">
<g>
	<g>
		<polygon points="16,3 18.6,0 13.4,0 		"/>
	</g>
</g>
<path d="M11.3,15.2h-0.6L7.2,5.9C7.1,5.6,6.9,5.5,6.6,5.5H5.4c-0.3,0-0.5,0.2-0.6,0.4l-3.5,9.3H0.7c-0.4,0-0.7,0.3-0.7,0.7
	c0,0.4,0.3,0.7,0.7,0.7h1.9c0.4,0,0.7-0.3,0.7-0.7c0-0.3-0.2-0.6-0.5-0.6l0.7-1.8h5.3l0.7,1.8c-0.3,0.1-0.6,0.3-0.6,0.7
	c0,0.4,0.3,0.7,0.7,0.7h1.9c0.4,0,0.7-0.3,0.7-0.7C12,15.5,11.7,15.2,11.3,15.2z M3.9,12.1l2-5.3h0.3l2,5.3H3.9z"/>
</svg>
