<?xml version="1.0" encoding="utf-8"?>
<!-- Generator: Adobe Illustrator 22.1.0, SVG Export Plug-In . SVG Version: 6.00 Build 0)  -->
<svg version="1.1"  xmlns="http://www.w3.org/2000/svg" xmlns:xlink="http://www.w3.org/1999/xlink" x="0px" y="0px"
	 viewBox="0 0 10.2 16" style="enable-background:new 0 0 10.2 16;" xml:space="preserve">
<path d="M9.5,0H6.5c0,0,0,0,0,0H3.6C3.2,0,2.9,0.3,2.9,0.7c0,0.4,0.3,0.7,0.7,0.7h2L3,14.5H0.7c-0.4,0-0.7,0.3-0.7,0.7
	C0,15.7,0.3,16,0.7,16h2.9c0,0,0,0,0,0c0,0,0,0,0,0h2.9c0.4,0,0.7-0.3,0.7-0.7c0-0.4-0.3-0.7-0.7-0.7h-2L7.1,1.5h2.3
	c0.4,0,0.7-0.3,0.7-0.7C10.2,0.3,9.9,0,9.5,0z"/>
</svg>
