<?xml version="1.0" encoding="utf-8"?>
<!-- Generator: Adobe Illustrator 22.1.0, SVG Export Plug-In . SVG Version: 6.00 Build 0)  -->
<svg version="1.1"  xmlns="http://www.w3.org/2000/svg" xmlns:xlink="http://www.w3.org/1999/xlink" x="0px" y="0px"
	 viewBox="0 0 16 14.8" style="enable-background:new 0 0 16 14.8;" xml:space="preserve">
<g>
	<g>
		<path d="M15.1,13h-0.7L9.6,0.6C9.5,0.2,9.2,0,8.8,0H7.2C6.9,0,6.5,0.2,6.4,0.6L1.7,13H0.9C0.4,13,0,13.4,0,13.9
			c0,0.5,0.4,0.9,0.9,0.9h2.5c0.5,0,0.9-0.4,0.9-0.9c0-0.4-0.3-0.8-0.7-0.9l0.9-2.4h7.1l0.9,2.4c-0.4,0.1-0.7,0.4-0.7,0.9
			c0,0.5,0.4,0.9,0.9,0.9h2.5c0.5,0,0.9-0.4,0.9-0.9C16,13.4,15.6,13,15.1,13z M5.2,8.9l2.7-7.1h0.4l2.7,7.1H5.2z"/>
	</g>
</g>
</svg>
