<?xml version="1.0" encoding="utf-8"?>
<!-- Generator: Adobe Illustrator 22.1.0, SVG Export Plug-In . SVG Version: 6.00 Build 0)  -->
<svg version="1.1"  xmlns="http://www.w3.org/2000/svg" xmlns:xlink="http://www.w3.org/1999/xlink" x="0px" y="0px"
	 viewBox="0 0 16 16" style="enable-background:new 0 0 16 16;" xml:space="preserve">
<path d="M13.6,0.6c-0.8-0.8-2.1-0.8-2.9,0L7.3,4c-0.8,0.8-0.8,2.1,0,2.9l0.4,0.4L7.3,7.8L6.9,7.3C6.1,6.5,4.8,6.5,4,7.3l-3.4,3.4
	c-0.8,0.8-0.8,2.1,0,2.9l1.8,1.8c0,0,0,0,0,0C2.8,15.8,3.3,16,3.8,16h0c0.5,0,1.1-0.2,1.5-0.6L8.7,12c0.8-0.8,0.8-2.1,0-2.9L8.2,8.7
	l0.5-0.5l0.4,0.4c0.8,0.8,2.1,0.8,2.9,0l3.4-3.4c0.8-0.8,0.8-2.1,0-2.9L13.6,0.6z M7.8,11.1l-3.4,3.4c-0.3,0.3-0.8,0.3-1.1,0
	l-1.8-1.8c-0.3-0.3-0.3-0.8,0-1.1l3.4-3.4c0.3-0.3,0.8-0.3,1.1,0l0.4,0.4L5.8,9.3c-0.2,0.2-0.2,0.6,0,0.9c0.2,0.2,0.6,0.2,0.9,0
	l0.7-0.7L7.8,10C8.1,10.3,8.1,10.8,7.8,11.1z M14.5,4.4l-3.4,3.4c-0.3,0.3-0.8,0.3-1.1,0L9.6,7.3l0.7-0.7c0.2-0.2,0.2-0.6,0-0.9
	c-0.2-0.2-0.6-0.2-0.9,0L8.7,6.4L8.2,6c-0.3-0.3-0.3-0.8,0-1.1l3.4-3.4c0.3-0.3,0.8-0.3,1.1,0l1.8,1.8C14.8,3.6,14.8,4.1,14.5,4.4z"
	/>
</svg>
