<?xml version="1.0" encoding="utf-8"?>
<!-- Generator: Adobe Illustrator 22.1.0, SVG Export Plug-In . SVG Version: 6.00 Build 0)  -->
<svg version="1.1"  xmlns="http://www.w3.org/2000/svg" xmlns:xlink="http://www.w3.org/1999/xlink" x="0px" y="0px"
	 viewBox="0 0 116.2 40" style="enable-background:new 0 0 116.2 40;" xml:space="preserve">
<path d="M25.7,39.2H0v-0.9c4.5-0.5,4.9-0.9,4.9-4.8V7.2c0-3.9-0.4-4.3-4.9-4.8V1.5h14.7v0.9C9.8,2.8,9.3,3.3,9.3,7.2v26.7
	c0,3.7,0.6,4.3,4.3,4.3c6.8,0,10.6-4.8,11.3-14h0.8V39.2z"/>
<path d="M37.8,6.8c-1.5,0-2.7-1.5-2.7-3.4S36.3,0,37.8,0c1.5,0,2.7,1.5,2.7,3.4S39.2,6.8,37.8,6.8z M41.4,29.3
	c-1.7,6.5-4.6,10.4-7.6,10.4c-2.5,0-4.2-2.3-4.2-5.9c0.1-1.8,0.4-3.7,0.9-5.4l2.3-8.8c0-0.2,0.2-0.7,0.5-1.8
	c0.2-0.7,0.4-1.4,0.4-2.1c0-1.1-0.5-1.9-1.4-1.9c-2.1,0-4,2.9-6.3,9.5l-0.8-0.4c1.2-4.2,2.7-7.1,4.3-9c0.4-0.4,0.8-0.8,1.4-1
	c0.5-0.2,1.1-0.4,1.7-0.4c2.6,0,4.4,2.4,4.4,5.8c-0.2,2.5-0.6,4.9-1.3,7.3l-1.1,4l-0.9,3.3l-0.5,1.6c-0.2,0.7-0.3,1.3-0.3,2
	c0,1.1,0.5,1.9,1.3,1.9c2.1,0,4.5-3.5,6.3-9.4L41.4,29.3L41.4,29.3z"/>
<path d="M55.8,12.1c1,0,1.9,0.2,2.8,0.6c0.9,0.4,1.6,1.1,2.2,1.8c1.1,1.6,1.3,2.7,1.3,7.6V34c0,3.3,0.7,4,4.3,4.3v0.9H53.6v-0.9
	c3.7-0.4,4.3-1,4.3-4.3V22.4c0-7.4-0.4-8.4-3.2-8.4c-2.6,0-5,2.2-6.2,5.4c-1.1,3.1-1.4,5.3-1.4,10.8V34c0,3.3,0.6,3.9,4.3,4.3v0.9
	H38.7v-0.9c3.7-0.4,4.3-1,4.3-4.3v-16c0-2.9-0.1-3.4-1.2-3.9c-0.6-0.3-1.2-0.3-3.3-0.5v-1c2.9-0.1,5.8-0.3,8.7-0.7v8.3
	C48.7,15.1,51.9,12.1,55.8,12.1L55.8,12.1z"/>
<path d="M77.6,12.7c2.9-0.1,5.8-0.3,8.7-0.7V34c0,3.3,0.6,4,4.3,4.3v0.9h-0.6l-3.9,0.2c-1.6,0.1-2.7,0.2-3.2,0.2
	c-0.3,0-0.5,0.1-0.8,0.1v-8.1c-1,2.7-1.4,3.6-2.5,5c-0.7,1-1.6,1.8-2.6,2.3c-1,0.6-2.2,0.9-3.4,0.9c-1,0-1.9-0.2-2.7-0.7
	c-0.8-0.5-1.5-1.1-2-1.9c-1.1-1.8-1.4-3.7-1.4-7.5V18.1c0-2.9-0.2-3.4-1.2-3.9c-1.1-0.3-2.2-0.5-3.4-0.5v-1c3-0.1,5.9-0.3,8.9-0.7
	v19.1c0,4.9,1,7.2,3.2,7.2c2.5,0,5.2-3,6.4-7.3c0.6-2.5,0.9-5,0.8-7.6V18c0-2.9-0.1-3.4-1.2-3.9c-1.1-0.3-2.2-0.5-3.3-0.5L77.6,12.7
	L77.6,12.7z"/>
<path d="M111.3,34.5c1.8,3.2,2.4,3.6,5,3.9v0.9h-12.4v-0.9c2.6-0.3,3.4-0.6,3.4-1.6c-0.1-0.5-0.2-0.9-0.5-1.4l-0.8-1.4l-4-6.8
	l-3,5.2c-1.1,2-1.7,3.3-1.7,4.1c0,1.3,0.8,1.8,3.5,2v0.9H90.4v-0.9c2.7-0.4,3.8-1.1,5.8-4c1.1-1.6,1.2-1.8,3.1-5l2-3.5l-4.8-8.3
	c-1.7-2.9-2.4-3.5-5.1-3.8v-0.9h12.1v0.9c-2.2,0.2-3,0.6-3,1.5c0.1,0.4,0.2,0.7,0.4,1.1l0.7,1.2l3.4,5.9l2.7-4.5
	c0.8-1.4,1.2-2.4,1.2-3.2c0-1.1-0.8-1.6-3.3-1.9v-0.9h9.7v0.9c-2.9,0.5-4.1,1.4-5.8,4.4l-1.2,2l-2.5,4.3L111.3,34.5L111.3,34.5z"/>
</svg>
