<?xml version="1.0" encoding="utf-8"?>
<!-- Generator: Adobe Illustrator 22.1.0, SVG Export Plug-In . SVG Version: 6.00 Build 0)  -->
<svg version="1.1"  xmlns="http://www.w3.org/2000/svg" xmlns:xlink="http://www.w3.org/1999/xlink" x="0px" y="0px"
	 viewBox="0 0 16 13.1" style="enable-background:new 0 0 16 13.1;" xml:space="preserve">
<path d="M3.6,1.5h11.6c0.4,0,0.7-0.3,0.7-0.7S15.7,0,15.3,0H3.6C3.2,0,2.9,0.3,2.9,0.7S3.2,1.5,3.6,1.5z"/>
<path d="M15.3,2.9H3.6c-0.4,0-0.7,0.3-0.7,0.7s0.3,0.7,0.7,0.7h11.6C15.7,4.4,16,4,16,3.6S15.7,2.9,15.3,2.9z"/>
<path d="M15.3,5.8H3.6c-0.4,0-0.7,0.3-0.7,0.7c0,0.4,0.3,0.7,0.7,0.7h11.6c0.4,0,0.7-0.3,0.7-0.7C16,6.1,15.7,5.8,15.3,5.8z"/>
<path d="M15.3,11.6H3.6c-0.4,0-0.7,0.3-0.7,0.7c0,0.4,0.3,0.7,0.7,0.7h11.6c0.4,0,0.7-0.3,0.7-0.7C16,12,15.7,11.6,15.3,11.6z"/>
<path d="M15.3,8.7H3.6c-0.4,0-0.7,0.3-0.7,0.7c0,0.4,0.3,0.7,0.7,0.7h11.6c0.4,0,0.7-0.3,0.7-0.7C16,9.1,15.7,8.7,15.3,8.7z"/>
<path d="M0.7,0C0.5,0,0.3,0.1,0.2,0.2C0.1,0.3,0,0.5,0,0.7c0,0.2,0.1,0.4,0.2,0.5c0.1,0.1,0.3,0.2,0.5,0.2s0.4-0.1,0.5-0.2
	c0.1-0.1,0.2-0.3,0.2-0.5c0-0.2-0.1-0.4-0.2-0.5C1.1,0.1,0.9,0,0.7,0z"/>
<path d="M0.7,2.9C0.5,2.9,0.3,3,0.2,3.1C0.1,3.3,0,3.4,0,3.6C0,3.8,0.1,4,0.2,4.2c0.1,0.1,0.3,0.2,0.5,0.2s0.4-0.1,0.5-0.2
	C1.4,4,1.5,3.8,1.5,3.6c0-0.2-0.1-0.4-0.2-0.5C1.1,3,0.9,2.9,0.7,2.9z"/>
<path d="M0.7,5.8C0.5,5.8,0.3,5.9,0.2,6C0.1,6.2,0,6.4,0,6.5c0,0.2,0.1,0.4,0.2,0.5c0.1,0.1,0.3,0.2,0.5,0.2s0.4-0.1,0.5-0.2
	c0.1-0.1,0.2-0.3,0.2-0.5c0-0.2-0.1-0.4-0.2-0.5C1.1,5.9,0.9,5.8,0.7,5.8z"/>
<path d="M0.7,11.6c-0.2,0-0.4,0.1-0.5,0.2C0.1,12,0,12.2,0,12.4s0.1,0.4,0.2,0.5c0.1,0.1,0.3,0.2,0.5,0.2s0.4-0.1,0.5-0.2
	c0.1-0.1,0.2-0.3,0.2-0.5S1.4,12,1.2,11.8C1.1,11.7,0.9,11.6,0.7,11.6z"/>
<path d="M0.7,8.7c-0.2,0-0.4,0.1-0.5,0.2C0.1,9.1,0,9.3,0,9.5C0,9.6,0.1,9.8,0.2,10c0.1,0.1,0.3,0.2,0.5,0.2s0.4-0.1,0.5-0.2
	c0.1-0.1,0.2-0.3,0.2-0.5c0-0.2-0.1-0.4-0.2-0.5C1.1,8.8,0.9,8.7,0.7,8.7z"/>
</svg>
