<?xml version="1.0" encoding="utf-8"?>
<!-- Generator: Adobe Illustrator 22.1.0, SVG Export Plug-In . SVG Version: 6.00 Build 0)  -->
<svg version="1.1"  xmlns="http://www.w3.org/2000/svg" xmlns:xlink="http://www.w3.org/1999/xlink" x="0px" y="0px"
	 viewBox="0 0 16 13.6" style="enable-background:new 0 0 16 13.6;" xml:space="preserve">
<path d="M5.2,1.5h10.1c0.4,0,0.8-0.3,0.8-0.8C16,0.3,15.7,0,15.2,0H5.2C4.7,0,4.4,0.3,4.4,0.8C4.4,1.2,4.7,1.5,5.2,1.5z"/>
<path d="M15.2,3H5.2C4.7,3,4.4,3.4,4.4,3.8c0,0.4,0.3,0.8,0.8,0.8h10.1c0.4,0,0.8-0.3,0.8-0.8C16,3.4,15.7,3,15.2,3z"/>
<path d="M15.2,6.1H5.2c-0.4,0-0.8,0.3-0.8,0.8c0,0.4,0.3,0.8,0.8,0.8h10.1c0.4,0,0.8-0.3,0.8-0.8C16,6.4,15.7,6.1,15.2,6.1z"/>
<path d="M15.2,12.1H5.2c-0.4,0-0.8,0.3-0.8,0.8s0.3,0.8,0.8,0.8h10.1c0.4,0,0.8-0.3,0.8-0.8S15.7,12.1,15.2,12.1z"/>
<path d="M15.2,9.1H5.2c-0.4,0-0.8,0.3-0.8,0.8c0,0.4,0.3,0.8,0.8,0.8h10.1c0.4,0,0.8-0.3,0.8-0.8C16,9.4,15.7,9.1,15.2,9.1z"/>
<path d="M0.9,1.3v1.9c0,0.2,0.2,0.4,0.4,0.4c0.2,0,0.4-0.2,0.4-0.4V0.4C1.7,0.2,1.5,0,1.3,0C1.1,0,1,0.1,1,0.2c0,0,0,0,0,0L0.7,0.6
	C0.6,0.7,0.5,0.8,0.5,0.9C0.5,1.1,0.7,1.3,0.9,1.3z"/>
<path d="M0.4,8.6h1.5c0.2,0,0.4-0.2,0.4-0.4c0-0.2-0.2-0.4-0.4-0.4H0.8v0c0-0.1,0.3-0.3,0.5-0.4c0.4-0.3,0.9-0.7,0.9-1.3
	C2.2,5.5,1.7,5,1.1,5c-0.6,0-1,0.4-1,0.9c0,0.3,0.2,0.4,0.4,0.4c0.2,0,0.4-0.2,0.4-0.4c0-0.1,0-0.2,0.3-0.2c0.3,0,0.3,0.3,0.3,0.3
	c0,0.2-0.3,0.5-0.6,0.7C0.4,7.1,0,7.4,0,7.8v0.4C0,8.5,0.2,8.6,0.4,8.6z"/>
<path d="M2.1,11.1c0-0.6-0.4-1-1-1c-0.8,0-1.1,0.6-1.1,0.9c0,0.4,0.3,0.4,0.4,0.4c0.2,0,0.4-0.2,0.4-0.4c0-0.1,0-0.2,0.3-0.2
	c0.2,0,0.2,0,0.2,0.3c0,0.2-0.1,0.3-0.3,0.3c-0.2,0-0.4,0.2-0.4,0.4c0,0.2,0.2,0.4,0.4,0.4c0.3,0,0.3,0.1,0.3,0.3v0.1
	c0,0.3-0.1,0.4-0.3,0.4c-0.3,0-0.3-0.2-0.3-0.2c0-0.2-0.1-0.4-0.4-0.4c-0.2,0-0.4,0.1-0.4,0.4c0,0.5,0.4,0.9,1.1,0.9
	c0.7,0,1.1-0.4,1.1-1.1v-0.1c0-0.3-0.1-0.5-0.3-0.7C2.1,11.6,2.1,11.3,2.1,11.1z"/>
</svg>
