<?xml version="1.0" encoding="utf-8"?>
<!-- Generator: Adobe Illustrator 22.1.0, SVG Export Plug-In . SVG Version: 6.00 Build 0)  -->
<svg version="1.1"  xmlns="http://www.w3.org/2000/svg" xmlns:xlink="http://www.w3.org/1999/xlink" x="0px" y="0px"
	 viewBox="0 0 21 21" style="enable-background:new 0 0 21 21;" xml:space="preserve">
<g>
	<g>
		<g>
			<path d="M2.6,21h7.8c0.5,0,0.9-0.4,0.9-0.9c0-0.5-0.4-0.9-0.9-0.9H2.6c-0.5,0-0.9-0.4-0.9-0.9V2.7c0-0.5,0.4-0.9,0.9-0.9h7.8
				c0.5,0,0.9-0.4,0.9-0.9c0-0.5-0.4-0.9-0.9-0.9H2.6C1.2,0,0,1.2,0,2.7v15.7C0,19.8,1.2,21,2.6,21z"/>
			<path d="M15.4,4.6c-0.3-0.3-0.9-0.3-1.2,0c-0.3,0.3-0.3,0.9,0,1.2L18,9.6H7.8C7.4,9.6,7,10,7,10.5c0,0.5,0.4,0.9,0.9,0.9H18
				l-3.8,3.7c-0.3,0.3-0.3,0.9,0,1.2c0.2,0.2,0.4,0.3,0.6,0.3c0.2,0,0.4-0.1,0.6-0.3l5.3-5.2c0.2-0.2,0.3-0.4,0.3-0.6
				c0-0.2-0.1-0.5-0.3-0.6L15.4,4.6z"/>
		</g>
	</g>
</g>
</svg>
