<?xml version="1.0" encoding="utf-8"?>
<!-- Generator: Adobe Illustrator 22.1.0, SVG Export Plug-In . SVG Version: 6.00 Build 0)  -->
<svg version="1.1"  xmlns="http://www.w3.org/2000/svg" xmlns:xlink="http://www.w3.org/1999/xlink" x="0px" y="0px"
	 viewBox="0 0 16.2 18" style="enable-background:new 0 0 16.2 18;" xml:space="preserve">
<g>
	<g>
		<g>
			<path d="M14.9,12.1c-0.8-0.8-2-1.3-3.2-1.3H4.5c-1.2,0-2.3,0.5-3.2,1.3C0.5,13,0,14.1,0,15.3v1.8c0,0.2,0.1,0.5,0.3,0.6
				C0.4,17.9,0.7,18,0.9,18c0.2,0,0.5-0.1,0.6-0.3c0.2-0.2,0.3-0.4,0.3-0.6v-1.8c0-0.7,0.3-1.4,0.8-1.9c0.5-0.5,1.2-0.8,1.9-0.8h7.2
				c0.7,0,1.4,0.3,1.9,0.8c0.5,0.5,0.8,1.2,0.8,1.9v1.8c0,0.2,0.1,0.5,0.3,0.6c0.2,0.2,0.4,0.3,0.6,0.3s0.5-0.1,0.6-0.3
				c0.2-0.2,0.3-0.4,0.3-0.6v-1.8C16.2,14.1,15.7,13,14.9,12.1z"/>
			<path d="M5.6,8.2C6.3,8.7,7.2,9,8.1,9c1.2,0,2.3-0.5,3.2-1.3c0.8-0.8,1.3-2,1.3-3.2c0-0.9-0.3-1.8-0.8-2.5
				c-0.5-0.7-1.2-1.3-2-1.7C9,0,8.1-0.1,7.2,0.1S5.5,0.7,4.9,1.3S3.9,2.7,3.7,3.6C3.5,4.5,3.6,5.4,3.9,6.2C4.3,7,4.9,7.7,5.6,8.2z
				 M5.9,3c0.3-0.4,0.7-0.8,1.2-1c0.5-0.2,1-0.3,1.6-0.2C9.2,2,9.6,2.2,10,2.6C10.4,3,10.6,3.4,10.7,4s0.1,1.1-0.2,1.6
				C10.4,6,10,6.4,9.6,6.7C9.2,7,8.6,7.2,8.1,7.2c-0.7,0-1.4-0.3-1.9-0.8S5.4,5.2,5.4,4.5C5.4,4,5.6,3.4,5.9,3z"/>
		</g>
	</g>
</g>
</svg>
