<?xml version="1.0" encoding="utf-8"?>
<!-- Generator: Adobe Illustrator 22.1.0, SVG Export Plug-In . SVG Version: 6.00 Build 0)  -->
<svg version="1.1"  xmlns="http://www.w3.org/2000/svg" xmlns:xlink="http://www.w3.org/1999/xlink" x="0px" y="0px"
	 viewBox="0 0 16 16" style="enable-background:new 0 0 16 16;" xml:space="preserve">
<path d="M15.3,13.1H0.7c-0.4,0-0.7,0.3-0.7,0.7c0,0.4,0.3,0.7,0.7,0.7h14.5c0.4,0,0.7-0.3,0.7-0.7
	C16,13.4,15.7,13.1,15.3,13.1z"/>
<path d="M15.3,10.2H4.6c-0.4,0-0.7,0.3-0.7,0.7c0,0.4,0.3,0.7,0.7,0.7h10.7c0.4,0,0.7-0.3,0.7-0.7
	C16,10.5,15.7,10.2,15.3,10.2z"/>
<path d="M15.3,7.3H0.7C0.3,7.3,0,7.6,0,8c0,0.4,0.3,0.7,0.7,0.7h14.5C15.7,8.7,16,8.4,16,8C16,7.6,15.7,7.3,15.3,7.3z"
	/>
<path d="M0.7,2.9h14.5c0.4,0,0.7-0.3,0.7-0.7s-0.3-0.7-0.7-0.7H0.7C0.3,1.5,0,1.8,0,2.2S0.3,2.9,0.7,2.9z"/>
<path d="M15.3,4.4H4.6c-0.4,0-0.7,0.3-0.7,0.7s0.3,0.7,0.7,0.7h10.7c0.4,0,0.7-0.3,0.7-0.7S15.7,4.4,15.3,4.4z"/>
</svg>
