<?xml version="1.0" encoding="utf-8"?>
<!-- Generator: Adobe Illustrator 22.1.0, SVG Export Plug-In . SVG Version: 6.00 Build 0)  -->
<svg version="1.1"  xmlns="http://www.w3.org/2000/svg" xmlns:xlink="http://www.w3.org/1999/xlink" x="0px" y="0px"
	 viewBox="0 0 140 134" style="enable-background:new 0 0 140 134;" xml:space="preserve">
<g>
	<path d="M85.8,130.5c28.6-7.9,48.1-34,48.1-63.7v-5.5c0-3.6-2.4-6.1-6.1-6.1s-6.1,2.4-6.1,6.1v5.5c0,24.3-15.8,44.9-39,52.2
		c-23.1,7.3-48.1-2.4-61.5-22.5c-13.4-20-11-46.1,4.3-64.9S67,7.3,89.5,17c3,1.2,6.7,0,7.9-3c1.2-3,0-6.7-3-7.9
		C67-6.1,35.3,1.2,15.8,23.7C-3,46.1-4.9,78.3,11,103.2C26.8,128.1,57.2,139,85.8,130.5z"/>
	<path d="M140,12.1c0-1.5-0.6-3-1.8-4.2c-2.4-2.4-6.1-2.4-8.5,0L67,70.4l-14-14c-2.4-2.4-6.1-2.4-8.5,0c-2.4,2.4-2.4,6.1,0,8.5
		l18.3,18.2c2.4,2.4,6.1,2.4,8.5,0l67-66.8C139.4,15.2,140,13.7,140,12.1L140,12.1z"/>
</g>
</svg>
