<?xml version="1.0" encoding="utf-8"?>
<!-- Generator: Adobe Illustrator 22.1.0, SVG Export Plug-In . SVG Version: 6.00 Build 0)  -->
<svg version="1.1"  xmlns="http://www.w3.org/2000/svg" xmlns:xlink="http://www.w3.org/1999/xlink" x="0px" y="0px"
	 viewBox="0 0 16 16" style="enable-background:new 0 0 16 16;" xml:space="preserve">
<path d="M12.3,0c-0.4,0-0.8,0.4-0.8,0.8v6.9c0,1.9-1.6,3.5-3.5,3.5c-0.9,0-1.8-0.4-2.5-1c-0.7-0.7-1-1.5-1-2.5V0.8
	C4.5,0.4,4.2,0,3.7,0C3.3,0,2.9,0.4,2.9,0.8v6.9c0,1.4,0.5,2.6,1.5,3.6c1,1,2.2,1.5,3.6,1.5c2.8,0,5.1-2.3,5.1-5.1V0.8
	C13.1,0.4,12.7,0,12.3,0z"/>
<path d="M12.3,14.4H3.7c-0.4,0-0.8,0.4-0.8,0.8S3.3,16,3.7,16h8.5c0.4,0,0.8-0.4,0.8-0.8S12.7,14.4,12.3,14.4z"/>
</svg>
