<?xml version="1.0" encoding="utf-8"?>
<!-- Generator: Adobe Illustrator 22.1.0, SVG Export Plug-In . SVG Version: 6.00 Build 0)  -->
<svg version="1.1"  xmlns="http://www.w3.org/2000/svg" xmlns:xlink="http://www.w3.org/1999/xlink" x="0px" y="0px"
	 viewBox="0 0 21.4 12.2" style="enable-background:new 0 0 21.4 12.2;" xml:space="preserve">
<path d="M21.4,0.9c0,0-0.2-0.4-1.1-0.3l-3.2,0c-0.2,0-0.4,0.1-0.4,0.1S16.5,0.8,16.4,1c-0.5,1.4-1.2,2.5-1.2,2.5
	c-1.4,2.4-2,2.6-2.2,2.4c-0.5-0.3-0.4-1.4-0.4-2.2c0-2.4,0.4-3.3-0.7-3.6C11.5,0.1,11.2,0,10.3,0C9.2,0,8.2,0,7.6,0.3
	C7.3,0.4,7,0.9,7.2,0.9c0.2,0,0.7,0.1,0.9,0.5c0,0,0.3,0.5,0.3,1.5C8.6,5.6,8,5.9,8,5.9C7.6,6.2,6.8,5.8,5.7,3.5
	c0,0-0.6-1.1-1.1-2.4C4.4,0.9,4.3,0.7,4.3,0.7S4.1,0.6,3.8,0.5l-3.1,0c-0.5,0-0.6,0.2-0.6,0.2s-0.2,0.2,0,0.5
	c2.4,5.6,5.1,8.4,5.1,8.4s2.5,2.6,5.3,2.4h1.3c0.4,0,0.6-0.2,0.6-0.2s0.2-0.2,0.2-0.6c0-1.7,0.8-2,0.8-2c0.8-0.2,1.8,1.7,2.9,2.4
	c0,0,0.8,0.6,1.4,0.4l2.9,0c1.5,0,0.8-1.3,0.8-1.3c-0.1-0.1-0.4-0.9-2.1-2.5c-1.8-1.7-1.6-1.4,0.6-4.3C21,2.4,21.6,1.3,21.4,0.9z"/>
</svg>
