<svg width="115" height="105" viewBox="0 0 115 105" fill="none" xmlns="http://www.w3.org/2000/svg">
<g clip-path="url(#clip0)">
<path d="M48.6954 -0.000107556H1.43764C1.24472 -0.0165007 1.05056 0.00943094 0.868712 0.0758751C0.686864 0.142319 0.521719 0.247673 0.384818 0.384574C0.247917 0.521475 0.142563 0.68662 0.0761192 0.868468C0.00967508 1.05032 -0.0162565 1.24448 0.000136585 1.43739V36.6561C-0.00227701 36.8456 0.0332566 37.0336 0.104643 37.2091C0.17603 37.3846 0.281824 37.544 0.415792 37.678C0.54976 37.812 0.709191 37.9177 0.884686 37.9891C1.06018 38.0605 1.24819 38.0961 1.43764 38.0936H24.797V46.7186C24.7909 46.9924 24.8695 47.2614 25.022 47.4888C25.1745 47.7162 25.3935 47.891 25.649 47.9893C25.9046 48.0876 26.1843 48.1046 26.4499 48.038C26.7155 47.9714 26.954 47.8244 27.1329 47.6171L36.6564 38.0936H48.8751C49.0646 38.0961 49.2526 38.0605 49.4281 37.9891C49.6036 37.9177 49.763 37.812 49.897 37.678C50.0309 37.544 50.1367 37.3846 50.2081 37.2091C50.2795 37.0336 50.315 36.8456 50.3126 36.6561V1.43739C50.2358 1.05463 50.0364 0.707303 49.7447 0.447942C49.4529 0.188581 49.0846 0.0313001 48.6954 -0.000107556ZM41.1486 28.2108H8.98451C8.79507 28.2132 8.60706 28.1777 8.43156 28.1063C8.25607 28.0349 8.09664 27.9291 7.96267 27.7952C7.8287 27.6612 7.7229 27.5018 7.65152 27.3263C7.58013 27.1508 7.5446 26.9628 7.54701 26.7733C7.5481 26.5928 7.58749 26.4145 7.66259 26.2503C7.73769 26.0861 7.84679 25.9398 7.98266 25.8209C8.11854 25.702 8.2781 25.6133 8.45081 25.5607C8.62351 25.508 8.80542 25.4926 8.98451 25.5155H40.9689C41.1583 25.5131 41.3463 25.5486 41.5218 25.62C41.6973 25.6914 41.8568 25.7972 41.9907 25.9312C42.1247 26.0651 42.2305 26.2246 42.3019 26.4001C42.3733 26.5756 42.4088 26.7636 42.4064 26.953C42.4266 27.1231 42.408 27.2955 42.3519 27.4573C42.2959 27.6191 42.2038 27.7661 42.0827 27.8872C41.9617 28.0083 41.8147 28.1003 41.6529 28.1564C41.491 28.2124 41.3186 28.2311 41.1486 28.2108ZM41.1486 20.1249H8.98451C8.60326 20.1249 8.23763 19.9734 7.96805 19.7039C7.69846 19.4343 7.54701 19.0686 7.54701 18.6874C7.54701 18.3061 7.69846 17.9405 7.96805 17.6709C8.23763 17.4013 8.60326 17.2499 8.98451 17.2499H40.9689C41.1583 17.2475 41.3463 17.283 41.5218 17.3544C41.6973 17.4258 41.8568 17.5316 41.9907 17.6655C42.1247 17.7995 42.2305 17.9589 42.3019 18.1344C42.3733 18.3099 42.4088 18.4979 42.4064 18.6874C42.4293 18.8665 42.4139 19.0484 42.3613 19.2211C42.3086 19.3938 42.2199 19.5534 42.101 19.6892C41.9821 19.8251 41.8358 19.9342 41.6716 20.0093C41.5074 20.0844 41.3291 20.1238 41.1486 20.1249ZM41.1486 12.039H8.98451C8.79507 12.0414 8.60706 12.0058 8.43156 11.9344C8.25607 11.8631 8.09664 11.7573 7.96267 11.6233C7.8287 11.4893 7.7229 11.3299 7.65152 11.1544C7.58013 10.9789 7.5446 10.7909 7.54701 10.6015C7.64414 10.2779 7.83052 9.9882 8.08479 9.76572C8.33905 9.54324 8.65089 9.39695 8.98451 9.34364H40.9689C41.1583 9.34123 41.3463 9.37676 41.5218 9.44815C41.6973 9.51953 41.8568 9.62533 41.9907 9.7593C42.1247 9.89327 42.2305 10.0527 42.3019 10.2282C42.3733 10.4037 42.4088 10.5917 42.4064 10.7811C42.4114 10.9477 42.3822 11.1135 42.3208 11.2683C42.2593 11.4232 42.1669 11.5638 42.0491 11.6816C41.9312 11.7994 41.7906 11.8919 41.6357 11.9533C41.4809 12.0148 41.3151 12.0439 41.1486 12.039Z" fill="#6A7FD4"/>
<path d="M113.743 43.4844H73.1332C72.9437 43.482 72.7557 43.5175 72.5802 43.5889C72.4047 43.6603 72.2453 43.7661 72.1113 43.9C71.9774 44.034 71.8716 44.1934 71.8002 44.3689C71.7288 44.5444 71.6933 44.7324 71.6957 44.9219V74.9297C71.6933 75.1191 71.7288 75.3071 71.8002 75.4826C71.8716 75.6581 71.9774 75.8176 72.1113 75.9515C72.2453 76.0855 72.4047 76.1913 72.5802 76.2627C72.7557 76.3341 72.9437 76.3696 73.1332 76.3672H78.1644V83.5547C78.1583 83.8284 78.2369 84.0974 78.3894 84.3248C78.5419 84.5523 78.7609 84.7271 79.0164 84.8254C79.272 84.9236 79.5517 84.9406 79.8173 84.874C80.0829 84.8074 80.3214 84.6604 80.5004 84.4531L88.5863 76.3672H113.563C113.752 76.3696 113.94 76.3341 114.116 76.2627C114.291 76.1913 114.451 76.0855 114.585 75.9515C114.719 75.8176 114.824 75.6581 114.896 75.4826C114.967 75.3071 115.003 75.1191 115 74.9297V44.9219C115.016 44.5665 114.894 44.2189 114.659 43.9512C114.425 43.6836 114.097 43.5164 113.743 43.4844ZM106.735 68.1016H80.141C79.7597 68.1016 79.3941 67.9501 79.1245 67.6805C78.8549 67.4109 78.7035 67.0453 78.7035 66.6641C78.7035 66.2828 78.8549 65.9172 79.1245 65.6476C79.3941 65.378 79.7597 65.2266 80.141 65.2266H106.735C106.924 65.2241 107.112 65.2597 107.288 65.3311C107.463 65.4025 107.623 65.5082 107.757 65.6422C107.891 65.7762 107.996 65.9356 108.068 66.1111C108.139 66.2866 108.175 66.4746 108.172 66.6641C107.993 67.3828 107.453 68.1016 106.735 68.1016ZM106.735 61.0937H80.141C79.9515 61.0962 79.7635 61.0606 79.588 60.9892C79.4125 60.9179 79.2531 60.8121 79.1191 60.6781C78.9852 60.5441 78.8794 60.3847 78.808 60.2092C78.7366 60.0337 78.7011 59.8457 78.7035 59.6562C78.6871 59.4633 78.713 59.2692 78.7795 59.0873C78.8459 58.9055 78.9513 58.7403 79.0882 58.6034C79.2251 58.4665 79.3902 58.3612 79.5721 58.2947C79.7539 58.2283 79.9481 58.2024 80.141 58.2187H106.735C107.116 58.2187 107.482 58.3702 107.751 58.6398C108.021 58.9094 108.172 59.275 108.172 59.6562C108.172 60.0375 108.021 60.4031 107.751 60.6727C107.482 60.9423 107.116 61.0937 106.735 61.0937ZM106.735 54.2656H80.141C79.7597 54.2656 79.3941 54.1142 79.1245 53.8446C78.8549 53.575 78.7035 53.2094 78.7035 52.8281C78.7035 52.4469 78.8549 52.0812 79.1245 51.8117C79.3941 51.5421 79.7597 51.3906 80.141 51.3906H106.735C106.924 51.3882 107.112 51.4237 107.288 51.4951C107.463 51.5665 107.623 51.6723 107.757 51.8063C107.891 51.9402 107.996 52.0997 108.068 52.2752C108.139 52.4507 108.175 52.6387 108.172 52.8281C107.993 53.7266 107.453 54.2656 106.735 54.2656Z" fill="#6A7FD4"/>
<path d="M66.4844 42.7656C57.498 46.0895 47.6192 46.0895 38.6328 42.7656C38.6328 42.0468 38.8125 41.3281 38.8125 40.6093H48.6953C49.7871 40.5954 50.8302 40.1555 51.6022 39.3834C52.3743 38.6114 52.8142 37.5683 52.8281 36.4765V20.125C55.9741 20.1183 59.1101 20.4801 62.1719 21.2031C64.2339 28.2515 65.6768 35.4663 66.4844 42.7656Z" fill="#D1D1D1"/>
<path d="M67.5627 64.1483H37.3752C37.3752 69.8983 37.7346 75.1093 38.094 80.1405C47.2812 76.9062 57.2974 76.9062 66.4846 80.1405C67.1427 74.8341 67.5026 69.495 67.5627 64.1483Z" fill="#D1D1D1"/>
<path d="M66.6641 45.4608C57.4926 48.7856 47.445 48.7856 38.2735 45.4608C37.7528 50.7752 37.5129 56.1133 37.5547 61.453H67.5625C67.3828 55.8827 67.2031 50.4921 66.6641 45.4608Z" fill="#D1D1D1"/>
<path d="M75.4688 83.5547C75.4535 83.9813 75.5143 84.4072 75.6484 84.8125C73.6109 83.4626 71.4439 82.3189 69.1797 81.3984C69.3886 79.9698 69.5086 78.5295 69.5391 77.0859C69.8766 77.693 70.3722 78.1974 70.9733 78.5454C71.5744 78.8934 72.2586 79.0721 72.9531 79.0625H75.4688V83.5547Z" fill="#D1D1D1"/>
<path d="M92.0003 79.0625C90.04 83.7388 87.3065 88.0516 83.9143 91.8203C83.7346 91.6406 83.5549 91.2813 83.3752 91.1016L83.1956 90.9219C82.0844 89.7511 80.8828 88.6696 79.6018 87.6875C80.1148 87.6824 80.6208 87.5675 81.0857 87.3505C81.5506 87.1336 81.9637 86.8196 82.2971 86.4297L89.6643 79.0625H92.0003Z" fill="#D1D1D1"/>
<path d="M89.1252 40.7891H76.0081C78.9054 38.7637 81.612 36.4782 84.094 33.9609C85.9284 36.1168 87.6096 38.3984 89.1252 40.7891Z" fill="#D1D1D1"/>
<path d="M37.7345 102.422C36.3634 96.6792 35.3433 90.8586 34.6798 84.9921C30.2616 87.0288 26.1974 89.7585 22.6407 93.078C27.035 97.1202 32.157 100.291 37.7345 102.422Z" fill="#D1D1D1"/>
<path d="M37.3752 83.7343C38.1349 90.395 39.3355 96.9981 40.969 103.5C48.3256 105.476 56.0734 105.476 63.4299 103.5C65.2368 97.0368 66.4398 90.4198 67.0237 83.7343C57.4675 80.141 46.9314 80.141 37.3752 83.7343Z" fill="#D1D1D1"/>
<path d="M66.6642 102.422C72.3307 100.364 77.525 97.1859 81.9376 93.078C78.4195 89.6636 74.349 86.8689 69.8986 84.8124C69.0001 91.1014 67.922 97.2108 66.6642 102.422Z" fill="#D1D1D1"/>
<path d="M35.5785 81.2186C35.0394 75.6483 34.6801 69.8983 34.6801 64.1483H9.70349C10.0337 74.3447 13.983 84.0906 20.8441 91.6405C25.0475 87.2604 30.0485 83.7231 35.5785 81.2186Z" fill="#D1D1D1"/>
<path d="M82.1174 32.1639C77.3537 27.5324 71.5678 24.0855 65.2268 22.1014C66.9641 28.5285 68.2253 35.0749 69.0002 41.6874C73.9353 39.3706 78.3863 36.139 82.1174 32.1639Z" fill="#D1D1D1"/>
<path d="M35.5785 44.5624C35.0394 50.1327 34.6801 55.8827 34.6801 61.6327H9.70349C9.91644 54.1941 12.0856 46.9428 15.9926 40.6093H22.1019V46.5389C22.0961 47.3325 22.326 48.1099 22.7625 48.7726C23.1991 49.4353 23.8225 49.9535 24.5539 50.2614C25.2853 50.5694 26.0916 50.6532 26.8707 50.5023C27.6498 50.3515 28.3665 49.9727 28.9301 49.4139L34.3207 44.0233C34.7534 44.17 35.1739 44.3502 35.5785 44.5624Z" fill="#D1D1D1"/>
</g>
<defs>
<clipPath id="clip0">
<rect width="115" height="104.991" fill="white"/>
</clipPath>
</defs>
</svg>
