<svg width="180" height="18" viewBox="0 0 180 18" fill="none" xmlns="http://www.w3.org/2000/svg">
<g clip-path="url(#clip0)">
<path d="M10.8394 6.67424L3.3522 17.1524H0V0.291016H3.85402V10.7691L11.3212 0.291016H14.6935V17.1524H10.8394V6.67424Z" fill="#2E3966"/>
<path d="M32.3779 17.1524H28.5238V10.3576H22.3815V17.1524H18.5275V0.291016H22.3815V6.74449H28.5238V0.291016H32.3779V17.1524Z" fill="#2E3966"/>
<path d="M46.6145 17.3431H42.7605V15.0799C40.4755 15.0799 38.6522 14.4944 37.2906 13.3235C35.929 12.1525 35.2599 10.5383 35.2833 8.48083C35.2833 6.42334 35.9658 4.83423 37.3308 3.71348C38.6957 2.59274 40.5107 1.98218 42.7756 1.88182V0.100342H46.6296V1.88182C48.8912 1.92531 50.7044 2.53586 52.0694 3.71348C52.759 4.29591 53.3064 5.02816 53.67 5.85437C54.0335 6.68058 54.2035 7.57892 54.167 8.48083C54.167 10.5383 53.4762 12.1442 52.0945 13.2984C50.7128 14.4526 48.8912 15.0464 46.6296 15.0799L46.6145 17.3431ZM39.3631 8.48083C39.3631 10.4881 40.4956 11.5085 42.7605 11.542V5.4197C41.8339 5.38216 40.9266 5.69173 40.2163 6.28785C39.9292 6.57387 39.7051 6.91666 39.5582 7.29429C39.4113 7.67192 39.3449 8.07605 39.3631 8.48083ZM50.0571 8.48083C50.0754 8.07605 50.0089 7.67192 49.862 7.29429C49.7151 6.91666 49.491 6.57387 49.204 6.28785C48.4785 5.68705 47.5555 5.3776 46.6145 5.4197V11.542C47.8323 11.5219 48.7105 11.2643 49.2491 10.7692C49.537 10.4659 49.7577 10.1054 49.897 9.71111C50.0362 9.31682 50.0907 8.89761 50.0571 8.48083Z" fill="#2E3966"/>
<path d="M56.8419 8.72171C56.8094 7.57183 57.0125 6.42745 57.4389 5.35903C57.8652 4.29061 58.5057 3.32074 59.3209 2.50911C60.1737 1.67137 61.1888 1.01669 62.3037 0.58522C63.4186 0.153756 64.6099 -0.0453955 65.8045 -2.37576e-05C68.4341 -2.37576e-05 70.5819 0.797884 72.2329 2.38867C73.8839 3.97946 74.742 6.08713 74.742 8.72171C74.7801 9.88648 74.5723 11.0462 74.1322 12.1253C73.6921 13.2044 73.0295 14.1786 72.1877 14.9845C71.3386 15.8011 70.3346 16.4395 69.2348 16.8618C68.1351 17.2841 66.9619 17.4819 65.7844 17.4435C63.4006 17.5312 61.0789 16.6725 59.3259 15.0548C57.6665 13.469 56.8385 11.358 56.8419 8.72171ZM60.9368 8.72171C60.9219 9.39183 61.0398 10.0583 61.2835 10.6827C61.5272 11.3071 61.8921 11.8771 62.3569 12.36C63.2891 13.2855 64.547 13.8086 65.8605 13.8171C67.1741 13.8255 68.4386 13.3186 69.3825 12.4051C70.2486 11.3774 70.7028 10.065 70.6572 8.72171C70.6871 8.04517 70.5788 7.36963 70.339 6.73633C70.0991 6.10302 69.7327 5.52526 69.2621 5.03831C68.8122 4.57636 68.2724 4.21156 67.6759 3.96644C67.0795 3.72131 66.4392 3.60106 65.7945 3.61313C65.1416 3.59014 64.4913 3.7052 63.8859 3.95078C63.2806 4.19637 62.7339 4.56696 62.2817 5.03831C61.8236 5.53186 61.4687 6.11189 61.2378 6.7444C61.0068 7.3769 60.9045 8.04914 60.9368 8.72171Z" fill="#2E3966"/>
<path d="M81.6371 11.4216V17.1525H77.7831V0.291135C78.5208 0.291135 79.3337 0.291126 80.2169 0.266035C81.1001 0.240943 82.0235 0.266035 82.9368 0.266035C85.3155 0.266035 87.0501 0.796304 88.1408 1.85683C88.6777 2.37444 89.0992 2.99965 89.3776 3.69149C89.6561 4.38334 89.7853 5.1262 89.7566 5.87144C89.7658 6.62276 89.6184 7.36775 89.3238 8.05895C89.0292 8.75015 88.5938 9.37241 88.0454 9.88605C86.8158 11.0076 85.1916 11.5959 83.529 11.522C82.6809 11.4919 82.0536 11.4668 81.6371 11.4216ZM83.3232 3.85409H83.1074L82.5053 3.87919H81.6371V7.73321C82.2197 7.80749 82.8062 7.8477 83.3935 7.85364C83.9777 7.88344 84.5536 7.70568 85.0194 7.35182C85.2396 7.15991 85.4122 6.91953 85.5236 6.64958C85.6351 6.37963 85.6824 6.08749 85.6617 5.79617C85.6517 4.50647 84.8789 3.85409 83.3232 3.85409Z" fill="#2E3966"/>
<path d="M96.7421 17.1524H92.8881V0.291016H96.7622L101.966 7.39686L106.879 0.291016H110.517V17.1524H106.663V6.40828L101.966 12.9872H101.414L96.7421 6.46347V17.1524Z" fill="#2E3966"/>
<path d="M117.417 17.1524H113.538L120.564 0.291016H124.006L131.032 17.1524H126.912L125.517 13.6095H118.843L117.417 17.1524ZM124.041 9.99633L122.165 5.22898L120.258 9.99633H124.041Z" fill="#2E3966"/>
<path d="M135.152 3.90415H130.093V0.291016H144.064V3.90415H139.006V17.1524H135.152V3.90415Z" fill="#2E3966"/>
<path d="M157.814 6.67424L150.347 17.1524H146.975V0.291016H150.829V10.7691L158.296 0.291016H161.668V17.1524H157.814V6.67424Z" fill="#2E3966"/>
<path d="M169.356 17.1524H165.502V0.291016H169.356V7.63774L174.876 0.291016H179.493L173.155 8.06932L179.995 17.1524H175.107L169.351 9.12314L169.356 17.1524Z" fill="#2E3966"/>
</g>
<defs>
<clipPath id="clip0">
<rect width="180" height="17.4385" fill="white"/>
</clipPath>
</defs>
</svg>
