<svg width="248" height="24" viewBox="0 0 248 24" fill="none" xmlns="http://www.w3.org/2000/svg">
<g clip-path="url(#clip0)">
<path d="M14.918 9.18543L4.61352 23.6061H0V0.400391H5.30417V14.8211L15.581 0.400391H20.2222V23.6061H14.918V9.18543Z" fill="#555865"/>
<path d="M44.5604 23.6061H39.2562V14.2548H30.8027V23.6061H25.4985V0.400391H30.8027V9.28211H39.2562V0.400391H44.5604V23.6061Z" fill="#555865"/>
<path d="M64.1542 23.8688H58.8501V20.754C55.7053 20.754 53.196 19.9483 51.322 18.3368C49.448 16.7252 48.5272 14.5036 48.5594 11.672C48.5594 8.84033 49.4987 6.65328 51.3773 5.11083C53.2558 3.56839 55.7537 2.7281 58.8708 2.58997V0.138184H64.175V2.58997C67.2875 2.64983 69.783 3.49011 71.6616 5.11083C72.6107 5.91241 73.3641 6.92019 73.8644 8.05728C74.3647 9.19436 74.5987 10.4307 74.5485 11.672C74.5485 14.5036 73.5977 16.7137 71.6961 18.3022C69.7945 19.8907 67.2875 20.708 64.175 20.754L64.1542 23.8688ZM54.1744 11.672C54.1744 14.4346 55.7329 15.8389 58.8501 15.8849V7.45905C57.5748 7.40739 56.3262 7.83344 55.3485 8.65386C54.9535 9.04749 54.645 9.51928 54.4428 10.039C54.2407 10.5587 54.1492 11.1149 54.1744 11.672ZM68.8921 11.672C68.9172 11.1149 68.8258 10.5587 68.6236 10.039C68.4215 9.51928 68.113 9.04749 67.718 8.65386C66.7196 7.82699 65.4493 7.40111 64.1542 7.45905V15.8849C65.8302 15.8573 67.0389 15.5028 67.7801 14.8213C68.1763 14.404 68.4801 13.9078 68.6717 13.3652C68.8633 12.8225 68.9384 12.2456 68.8921 11.672Z" fill="#555865"/>
<path d="M78.2297 12.0034C78.185 10.4208 78.4646 8.84585 79.0514 7.37541C79.6381 5.90497 80.5196 4.57017 81.6415 3.45315C82.8153 2.3002 84.2122 1.39918 85.7466 0.805368C87.281 0.211556 88.9206 -0.0625294 90.5647 -8.5678e-05C94.1837 -8.5678e-05 97.1397 1.09805 99.4119 3.2874C101.684 5.47676 102.865 8.37747 102.865 12.0034C102.918 13.6064 102.632 15.2025 102.026 16.6876C101.42 18.1727 100.508 19.5135 99.3498 20.6227C98.1812 21.7466 96.7994 22.6251 95.2858 23.2063C93.7722 23.7875 92.1576 24.0597 90.5371 24.0068C87.2564 24.1276 84.061 22.9458 81.6484 20.7193C79.3647 18.5369 78.2251 15.6316 78.2297 12.0034ZM83.8654 12.0034C83.845 12.9256 84.0072 13.8428 84.3426 14.7022C84.6781 15.5615 85.1802 16.346 85.82 17.0106C87.1028 18.2844 88.834 19.0043 90.6418 19.016C92.4496 19.0276 94.1899 18.3299 95.489 17.0727C96.681 15.6583 97.3061 13.852 97.2433 12.0034C97.2845 11.0723 97.1355 10.1425 96.8054 9.27094C96.4753 8.39935 95.971 7.6042 95.3233 6.93402C94.7041 6.29825 93.9612 5.79619 93.1403 5.45883C92.3195 5.12147 91.4382 4.95598 90.5509 4.97258C89.6524 4.94094 88.7574 5.09929 87.9243 5.43729C87.0912 5.77528 86.3388 6.28531 85.7164 6.93402C85.086 7.61328 84.5975 8.41156 84.2797 9.28205C83.9619 10.1525 83.821 11.0777 83.8654 12.0034Z" fill="#555865"/>
<path d="M112.354 15.719V23.6062H107.05V0.400479C108.066 0.400479 109.184 0.400466 110.4 0.365934C111.615 0.331401 112.886 0.365934 114.143 0.365934C117.417 0.365934 119.804 1.09573 121.305 2.5553C122.044 3.26767 122.624 4.12812 123.008 5.08029C123.391 6.03245 123.568 7.05483 123.529 8.08048C123.542 9.11449 123.339 10.1398 122.933 11.0911C122.528 12.0424 121.929 12.8988 121.174 13.6057C119.482 15.1492 117.246 15.9588 114.958 15.8572C113.791 15.8157 112.928 15.7812 112.354 15.719ZM114.675 5.30406H114.378L113.549 5.3386H112.354V10.6428C113.156 10.745 113.963 10.8003 114.772 10.8085C115.576 10.8495 116.368 10.6049 117.009 10.1179C117.312 9.85376 117.55 9.52294 117.703 9.15141C117.857 8.77989 117.922 8.37783 117.893 7.97688C117.88 6.20192 116.816 5.30406 114.675 5.30406Z" fill="#555865"/>
<path d="M133.143 23.6061H127.839V0.400391H133.171L140.333 10.1799L147.094 0.400391H152.101V23.6061H146.797V8.81939L140.333 17.8738H139.573L133.143 8.89535V23.6061Z" fill="#555865"/>
<path d="M161.597 23.6061H156.259L165.928 0.400391H170.666L180.335 23.6061H174.665L172.745 18.7302H163.559L161.597 23.6061ZM170.714 13.7575L168.131 7.19636L165.507 13.7575H170.714Z" fill="#555865"/>
<path d="M186.005 5.37304H179.043V0.400391H198.271V5.37304H191.309V23.6061H186.005V5.37304Z" fill="#555865"/>
<path d="M217.195 9.18543L206.918 23.6061H202.277V0.400391H207.581V14.8211L217.858 0.400391H222.499V23.6061H217.195V9.18543Z" fill="#555865"/>
<path d="M233.08 23.6061H227.775V0.400391H233.08V10.5115L240.677 0.400391H247.031L238.308 11.1054L247.721 23.6061H240.994L233.073 12.5558L233.08 23.6061Z" fill="#555865"/>
</g>
<defs>
<clipPath id="clip0">
<rect width="247.728" height="24" fill="white"/>
</clipPath>
</defs>
</svg>
