<svg width="114" height="113" viewBox="0 0 114 113" fill="none" xmlns="http://www.w3.org/2000/svg">
<g clip-path="url(#clip0)">
<path d="M50.6266 25.8519H45.4203V31.0582H50.6266V25.8519Z" fill="#6A7FD4"/>
<path d="M50.6266 39.1371H45.4203V44.3434H50.6266V39.1371Z" fill="#6A7FD4"/>
<path d="M33.0331 25.8519H27.8268V31.0582H33.0331V25.8519Z" fill="#6A7FD4"/>
<path d="M33.0331 39.1371H27.8268V44.3434H33.0331V39.1371Z" fill="#6A7FD4"/>
<path d="M68.0409 39.1371H62.8346V44.3434H68.0409V39.1371Z" fill="#6A7FD4"/>
<path d="M85.4551 52.6016H27.8268V57.8079H85.4551V52.6016Z" fill="#6A7FD4"/>
<path d="M15.6188 39.1371H10.4125V44.3434H15.6188V39.1371Z" fill="#6A7FD4"/>
<path d="M68.0409 25.8519H62.8346V31.0582H68.0409V25.8519Z" fill="#6A7FD4"/>
<path d="M15.6188 52.6016H10.4125V57.8079H15.6188V52.6016Z" fill="#6A7FD4"/>
<path d="M15.6188 25.8519H10.4125V31.0582H15.6188V25.8519Z" fill="#6A7FD4"/>
<path d="M112.204 15.9777H57.9871V15.2596C57.9963 14.6911 58.2263 14.1485 58.6283 13.7465C59.0303 13.3445 59.5729 13.1145 60.1414 13.1053H84.3776C85.0142 13.1053 85.6445 12.9799 86.2326 12.7363C86.8207 12.4927 87.355 12.1357 87.8051 11.6856C88.2552 11.2355 88.6123 10.7011 88.8559 10.113C89.0995 9.52492 89.2249 8.8946 89.2249 8.25805C89.2249 7.6215 89.0995 6.99119 88.8559 6.40309C88.6123 5.815 88.2552 5.28064 87.8051 4.83053C87.355 4.38043 86.8207 4.02338 86.2326 3.77978C85.6445 3.53619 85.0142 3.41081 84.3776 3.41081H37.7005C37.132 3.40156 36.5894 3.17162 36.1873 2.76959C35.7853 2.36757 35.5554 1.82496 35.5461 1.25648C35.545 1.0761 35.5057 0.897996 35.4306 0.733954C35.3556 0.569913 35.2466 0.423665 35.1109 0.304879C34.9751 0.186093 34.8157 0.0974745 34.6431 0.0448812C34.4706 -0.00771212 34.2888 -0.0230821 34.1099 -0.000212872C33.7549 -0.0154998 33.4076 0.106528 33.1401 0.340536C32.8727 0.574545 32.7057 0.902558 32.6737 1.25648C32.6713 1.89369 32.7951 2.52508 33.0378 3.11424C33.2806 3.70341 33.6375 4.23871 34.0881 4.68929C34.5387 5.13987 35.074 5.49683 35.6632 5.73958C36.2523 5.98234 36.8837 6.1061 37.5209 6.10372H84.1981C84.7695 6.10372 85.3174 6.3307 85.7214 6.73471C86.1255 7.13873 86.3524 7.68669 86.3524 8.25805C86.3524 8.82942 86.1255 9.37738 85.7214 9.7814C85.3174 10.1854 84.7695 10.4124 84.1981 10.4124H60.1414C59.5042 10.41 58.8728 10.5338 58.2836 10.7765C57.6945 11.0193 57.1592 11.3762 56.7086 11.8268C56.258 12.2774 55.9011 12.8127 55.6583 13.4019C55.4155 13.991 55.2918 14.6224 55.2942 15.2596V15.9777H1.25636C1.07597 15.9788 0.897874 16.0182 0.733832 16.0932C0.569791 16.1682 0.423543 16.2772 0.304757 16.413C0.185971 16.5488 0.0973524 16.7082 0.0447591 16.8807C-0.00783419 17.0533 -0.0232042 17.235 -0.000334941 17.414V66.2455C-0.0156219 66.6005 0.106406 66.9478 0.340414 67.2152C0.574423 67.4827 0.902436 67.6497 1.25636 67.6817H13.8233C14.4749 67.2352 15.2321 66.9671 16.0195 66.9041C16.807 66.8412 17.5971 66.9854 18.3115 67.3226V65.7069C18.3067 65.0926 18.4242 64.4834 18.657 63.915C18.8899 63.3465 19.2336 62.83 19.668 62.3956C20.1024 61.9612 20.6188 61.6176 21.1873 61.3847C21.7558 61.1518 22.3649 61.0344 22.9792 61.0392C23.5976 61.0192 24.2135 61.1263 24.7888 61.3538C25.3641 61.5813 25.8867 61.9244 26.3242 62.3619C26.7617 62.7994 27.1048 63.3219 27.3323 63.8973C27.5598 64.4726 27.6669 65.0885 27.6469 65.7069V67.3226C28.3714 67.0294 29.1543 66.9092 29.9335 66.9715C30.7126 67.0339 31.4664 67.277 32.1351 67.6817H82.9414C83.5931 67.2352 84.3502 66.9671 85.1377 66.9041C85.9251 66.8412 86.7152 66.9854 87.4296 67.3226V65.7069C87.4296 64.4689 87.9214 63.2817 88.7967 62.4063C89.6721 61.5309 90.8594 61.0392 92.0973 61.0392C93.3353 61.0392 94.5225 61.5309 95.3979 62.4063C96.2732 63.2817 96.765 64.4689 96.765 65.7069V67.3226C97.4895 67.0294 98.2725 66.9092 99.0516 66.9715C99.8307 67.0339 100.585 67.277 101.253 67.6817H112.563C112.753 67.6841 112.941 67.6486 113.116 67.5773C113.291 67.5059 113.451 67.4002 113.584 67.2664C113.718 67.1325 113.824 66.9732 113.895 66.7979C113.967 66.6226 114.002 66.4347 114 66.2455V17.2344C113.84 16.8835 113.59 16.5818 113.274 16.3608C112.958 16.1397 112.589 16.0074 112.204 15.9777ZM18.3115 59.0644C18.3139 59.2536 18.2784 59.4415 18.2071 59.6168C18.1357 59.7921 18.03 59.9514 17.8962 60.0853C17.7623 60.2191 17.6031 60.3248 17.4277 60.3961C17.2524 60.4675 17.0645 60.503 16.8753 60.5006H8.97604C8.78677 60.503 8.59893 60.4675 8.42359 60.3961C8.24825 60.3248 8.08896 60.2191 7.95511 60.0853C7.82126 59.9514 7.71556 59.7921 7.64424 59.6168C7.57291 59.4415 7.53741 59.2536 7.53982 59.0644V51.1651C7.53741 50.9759 7.57291 50.788 7.64424 50.6127C7.71556 50.4373 7.82126 50.278 7.95511 50.1442C8.08896 50.0104 8.24825 49.9047 8.42359 49.8333C8.59893 49.762 8.78677 49.7265 8.97604 49.7289H16.8753C17.0645 49.7265 17.2524 49.762 17.4277 49.8333C17.6031 49.9047 17.7623 50.0104 17.8962 50.1442C18.03 50.278 18.1357 50.4373 18.2071 50.6127C18.2784 50.788 18.3139 50.9759 18.3115 51.1651V59.0644ZM18.3115 45.5998C18.3139 45.7891 18.2784 45.9769 18.2071 46.1522C18.1357 46.3276 18.03 46.4869 17.8962 46.6207C17.7623 46.7546 17.6031 46.8603 17.4277 46.9316C17.2524 47.0029 17.0645 47.0384 16.8753 47.036H8.97604C8.78677 47.0384 8.59893 47.0029 8.42359 46.9316C8.24825 46.8603 8.08896 46.7546 7.95511 46.6207C7.82126 46.4869 7.71556 46.3276 7.64424 46.1522C7.57291 45.9769 7.53741 45.7891 7.53982 45.5998V37.7006C7.63686 37.3773 7.82308 37.0879 8.07712 36.8656C8.33116 36.6433 8.64272 36.4971 8.97604 36.4439H16.8753C17.0645 36.4415 17.2524 36.477 17.4277 36.5483C17.6031 36.6196 17.7623 36.7253 17.8962 36.8592C18.03 36.993 18.1357 37.1523 18.2071 37.3276C18.2784 37.503 18.3139 37.6908 18.3115 37.8801V45.5998ZM18.3115 32.3147C18.3139 32.504 18.2784 32.6919 18.2071 32.8672C18.1357 33.0425 18.03 33.2018 17.8962 33.3357C17.7623 33.4695 17.6031 33.5752 17.4277 33.6466C17.2524 33.7179 17.0645 33.7534 16.8753 33.751H8.97604C8.78677 33.7534 8.59893 33.7179 8.42359 33.6466C8.24825 33.5752 8.08896 33.4695 7.95511 33.3357C7.82126 33.2018 7.71556 33.0425 7.64424 32.8672C7.57291 32.6919 7.53741 32.504 7.53982 32.3147V24.4155C7.53741 24.2263 7.57291 24.0384 7.64424 23.8631C7.71556 23.6877 7.82126 23.5284 7.95511 23.3946C8.08896 23.2607 8.24825 23.155 8.42359 23.0837C8.59893 23.0124 8.78677 22.9769 8.97604 22.9793H16.8753C17.0645 22.9769 17.2524 23.0124 17.4277 23.0837C17.6031 23.155 17.7623 23.2607 17.8962 23.3946C18.03 23.5284 18.1357 23.6877 18.2071 23.8631C18.2784 24.0384 18.3139 24.2263 18.3115 24.4155V32.3147ZM60.1414 24.4155C60.139 24.2263 60.1745 24.0384 60.2458 23.8631C60.3171 23.6877 60.4228 23.5284 60.5567 23.3946C60.6905 23.2607 60.8498 23.155 61.0252 23.0837C61.2005 23.0124 61.3883 22.9769 61.5776 22.9793H69.2973C69.4866 22.9769 69.6744 23.0124 69.8498 23.0837C70.0251 23.155 70.1844 23.2607 70.3182 23.3946C70.4521 23.5284 70.5578 23.6877 70.6291 23.8631C70.7004 24.0384 70.7359 24.2263 70.7335 24.4155V32.3147C70.7359 32.504 70.7004 32.6919 70.6291 32.8672C70.5578 33.0425 70.4521 33.2018 70.3182 33.3357C70.1844 33.4695 70.0251 33.5752 69.8498 33.6466C69.6744 33.7179 69.4866 33.7534 69.2973 33.751H61.3981C61.2088 33.7534 61.021 33.7179 60.8456 33.6466C60.6703 33.5752 60.511 33.4695 60.3772 33.3357C60.2433 33.2018 60.1376 33.0425 60.0663 32.8672C59.995 32.6919 59.9595 32.504 59.9619 32.3147V24.4155H60.1414ZM60.1414 37.8801C60.139 37.6908 60.1745 37.503 60.2458 37.3276C60.3171 37.1523 60.4228 36.993 60.5567 36.8592C60.6905 36.7253 60.8498 36.6196 61.0252 36.5483C61.2005 36.477 61.3883 36.4415 61.5776 36.4439H69.2973C69.4866 36.4415 69.6744 36.477 69.8498 36.5483C70.0251 36.6196 70.1844 36.7253 70.3182 36.8592C70.4521 36.993 70.5578 37.1523 70.6291 37.3276C70.7004 37.503 70.7359 37.6908 70.7335 37.8801V45.7793C70.7359 45.9686 70.7004 46.1564 70.6291 46.3318C70.5578 46.5071 70.4521 46.6664 70.3182 46.8002C70.1844 46.9341 70.0251 47.0398 69.8498 47.1111C69.6744 47.1824 69.4866 47.2179 69.2973 47.2155H61.3981C61.2088 47.2179 61.021 47.1824 60.8456 47.1111C60.6703 47.0398 60.511 46.9341 60.3772 46.8002C60.2433 46.6664 60.1376 46.5071 60.0663 46.3318C59.995 46.1564 59.9595 45.9686 59.9619 45.7793V37.8801H60.1414ZM42.7272 24.4155C42.7248 24.2263 42.7603 24.0384 42.8316 23.8631C42.903 23.6877 43.0087 23.5284 43.1425 23.3946C43.2764 23.2607 43.4356 23.155 43.611 23.0837C43.7863 23.0124 43.9742 22.9769 44.1634 22.9793H52.0627C52.2519 22.9769 52.4398 23.0124 52.6151 23.0837C52.7905 23.155 52.9497 23.2607 53.0836 23.3946C53.2174 23.5284 53.3231 23.6877 53.3945 23.8631C53.4658 24.0384 53.5013 24.2263 53.4989 24.4155V32.3147C53.5013 32.504 53.4658 32.6919 53.3945 32.8672C53.3231 33.0425 53.2174 33.2018 53.0836 33.3357C52.9497 33.4695 52.7905 33.5752 52.6151 33.6466C52.4398 33.7179 52.2519 33.7534 52.0627 33.751H44.1634C43.9742 33.7534 43.7863 33.7179 43.611 33.6466C43.4356 33.5752 43.2764 33.4695 43.1425 33.3357C43.0087 33.2018 42.903 33.0425 42.8316 32.8672C42.7603 32.6919 42.7248 32.504 42.7272 32.3147V24.4155ZM42.7272 37.8801C42.7248 37.6908 42.7603 37.503 42.8316 37.3276C42.903 37.1523 43.0087 36.993 43.1425 36.8592C43.2764 36.7253 43.4356 36.6196 43.611 36.5483C43.7863 36.477 43.9742 36.4415 44.1634 36.4439H52.0627C52.2519 36.4415 52.4398 36.477 52.6151 36.5483C52.7905 36.6196 52.9497 36.7253 53.0836 36.8592C53.2174 36.993 53.3231 37.1523 53.3945 37.3276C53.4658 37.503 53.5013 37.6908 53.4989 37.8801V45.7793C53.5013 45.9686 53.4658 46.1564 53.3945 46.3318C53.3231 46.5071 53.2174 46.6664 53.0836 46.8002C52.9497 46.9341 52.7905 47.0398 52.6151 47.1111C52.4398 47.1824 52.2519 47.2179 52.0627 47.2155H44.1634C43.9742 47.2179 43.7863 47.1824 43.611 47.1111C43.4356 47.0398 43.2764 46.9341 43.1425 46.8002C43.0087 46.6664 42.903 46.5071 42.8316 46.3318C42.7603 46.1564 42.7248 45.9686 42.7272 45.7793V37.8801ZM25.1335 24.4155C25.1311 24.2263 25.1666 24.0384 25.2379 23.8631C25.3093 23.6877 25.415 23.5284 25.5488 23.3946C25.6827 23.2607 25.8419 23.155 26.0173 23.0837C26.1926 23.0124 26.3805 22.9769 26.5697 22.9793H34.469C34.6582 22.9769 34.8461 23.0124 35.0214 23.0837C35.1968 23.155 35.356 23.2607 35.4899 23.3946C35.6237 23.5284 35.7294 23.6877 35.8008 23.8631C35.8721 24.0384 35.9076 24.2263 35.9052 24.4155V32.3147C35.9076 32.504 35.8721 32.6919 35.8008 32.8672C35.7294 33.0425 35.6237 33.2018 35.4899 33.3357C35.356 33.4695 35.1968 33.5752 35.0214 33.6466C34.8461 33.7179 34.6582 33.7534 34.469 33.751H26.5697C26.3805 33.7534 26.1926 33.7179 26.0173 33.6466C25.8419 33.5752 25.6827 33.4695 25.5488 33.3357C25.415 33.2018 25.3093 33.0425 25.2379 32.8672C25.1666 32.6919 25.1311 32.504 25.1335 32.3147V24.4155ZM25.1335 37.8801C25.1311 37.6908 25.1666 37.503 25.2379 37.3276C25.3093 37.1523 25.415 36.993 25.5488 36.8592C25.6827 36.7253 25.8419 36.6196 26.0173 36.5483C26.1926 36.477 26.3805 36.4415 26.5697 36.4439H34.469C34.6582 36.4415 34.8461 36.477 35.0214 36.5483C35.1968 36.6196 35.356 36.7253 35.4899 36.8592C35.6237 36.993 35.7294 37.1523 35.8008 37.3276C35.8721 37.503 35.9076 37.6908 35.9052 37.8801V45.7793C35.9076 45.9686 35.8721 46.1564 35.8008 46.3318C35.7294 46.5071 35.6237 46.6664 35.4899 46.8002C35.356 46.9341 35.1968 47.0398 35.0214 47.1111C34.8461 47.1824 34.6582 47.2179 34.469 47.2155H26.5697C26.3805 47.2179 26.1926 47.1824 26.0173 47.1111C25.8419 47.0398 25.6827 46.9341 25.5488 46.8002C25.415 46.6664 25.3093 46.5071 25.2379 46.3318C25.1666 46.1564 25.1311 45.9686 25.1335 45.7793V37.8801ZM88.1477 59.0644C88.1501 59.2536 88.1146 59.4415 88.0433 59.6168C87.972 59.7921 87.8663 59.9514 87.7324 60.0853C87.5986 60.2191 87.4393 60.3248 87.2639 60.3961C87.0886 60.4675 86.9008 60.503 86.7115 60.5006H26.5697C26.3805 60.503 26.1926 60.4675 26.0173 60.3961C25.8419 60.3248 25.6827 60.2191 25.5488 60.0853C25.415 59.9514 25.3093 59.7921 25.2379 59.6168C25.1666 59.4415 25.1311 59.2536 25.1335 59.0644V51.1651C25.1311 50.9759 25.1666 50.788 25.2379 50.6127C25.3093 50.4373 25.415 50.278 25.5488 50.1442C25.6827 50.0104 25.8419 49.9047 26.0173 49.8333C26.1926 49.762 26.3805 49.7265 26.5697 49.7289H86.891C87.0803 49.7265 87.2681 49.762 87.4435 49.8333C87.6188 49.9047 87.7781 50.0104 87.9119 50.1442C88.0458 50.278 88.1515 50.4373 88.2228 50.6127C88.2941 50.788 88.3296 50.9759 88.3272 51.1651V59.0644H88.1477ZM88.1477 45.5998C88.1501 45.7891 88.1146 45.9769 88.0433 46.1522C87.972 46.3276 87.8663 46.4869 87.7324 46.6207C87.5986 46.7546 87.4393 46.8603 87.2639 46.9316C87.0886 47.0029 86.9008 47.0384 86.7115 47.036H78.8123C78.623 47.0384 78.4352 47.0029 78.2598 46.9316C78.0845 46.8603 77.9252 46.7546 77.7913 46.6207C77.6575 46.4869 77.5518 46.3276 77.4805 46.1522C77.4091 45.9769 77.3736 45.7891 77.376 45.5998V37.7006C77.3736 37.5113 77.4091 37.3235 77.4805 37.1481C77.5518 36.9728 77.6575 36.8135 77.7913 36.6796C77.9252 36.5458 78.0845 36.4401 78.2598 36.3688C78.4352 36.2974 78.623 36.2619 78.8123 36.2644H86.7115C86.9008 36.2619 87.0886 36.2974 87.2639 36.3688C87.4393 36.4401 87.5986 36.5458 87.7324 36.6796C87.8663 36.8135 87.972 36.9728 88.0433 37.1481C88.1146 37.3235 88.1501 37.5113 88.1477 37.7006V45.5998ZM88.1477 32.3147C88.1501 32.504 88.1146 32.6919 88.0433 32.8672C87.972 33.0425 87.8663 33.2018 87.7324 33.3357C87.5986 33.4695 87.4393 33.5752 87.2639 33.6466C87.0886 33.7179 86.9008 33.7534 86.7115 33.751H78.8123C78.623 33.7534 78.4352 33.7179 78.2598 33.6466C78.0845 33.5752 77.9252 33.4695 77.7913 33.3357C77.6575 33.2018 77.5518 33.0425 77.4805 32.8672C77.4091 32.6919 77.3736 32.504 77.376 32.3147V24.4155C77.3736 24.2263 77.4091 24.0384 77.4805 23.8631C77.5518 23.6877 77.6575 23.5284 77.7913 23.3946C77.9252 23.2607 78.0845 23.155 78.2598 23.0837C78.4352 23.0124 78.623 22.9769 78.8123 22.9793H86.7115C86.9008 22.9769 87.0886 23.0124 87.2639 23.0837C87.4393 23.155 87.5986 23.2607 87.7324 23.3946C87.8663 23.5284 87.972 23.6877 88.0433 23.8631C88.1146 24.0384 88.1501 24.2263 88.1477 24.4155V32.3147ZM105.741 59.0644C105.744 59.2536 105.708 59.4415 105.637 59.6168C105.566 59.7921 105.46 59.9514 105.326 60.0853C105.192 60.2191 105.033 60.3248 104.858 60.3961C104.682 60.4675 104.494 60.503 104.305 60.5006H96.406C96.2167 60.503 96.0289 60.4675 95.8535 60.3961C95.6782 60.3248 95.5189 60.2191 95.385 60.0853C95.2512 59.9514 95.1455 59.7921 95.0742 59.6168C95.0028 59.4415 94.9673 59.2536 94.9697 59.0644V51.1651C94.9673 50.9759 95.0028 50.788 95.0742 50.6127C95.1455 50.4373 95.2512 50.278 95.385 50.1442C95.5189 50.0104 95.6782 49.9047 95.8535 49.8333C96.0289 49.762 96.2167 49.7265 96.406 49.7289H104.305C104.494 49.7265 104.682 49.762 104.858 49.8333C105.033 49.9047 105.192 50.0104 105.326 50.1442C105.46 50.278 105.566 50.4373 105.637 50.6127C105.708 50.788 105.744 50.9759 105.741 51.1651V59.0644ZM105.741 45.5998C105.744 45.7891 105.708 45.9769 105.637 46.1522C105.566 46.3276 105.46 46.4869 105.326 46.6207C105.192 46.7546 105.033 46.8603 104.858 46.9316C104.682 47.0029 104.494 47.0384 104.305 47.036H96.406C96.2167 47.0384 96.0289 47.0029 95.8535 46.9316C95.6782 46.8603 95.5189 46.7546 95.385 46.6207C95.2512 46.4869 95.1455 46.3276 95.0742 46.1522C95.0028 45.9769 94.9673 45.7891 94.9697 45.5998V37.7006C94.9673 37.5113 95.0028 37.3235 95.0742 37.1481C95.1455 36.9728 95.2512 36.8135 95.385 36.6796C95.5189 36.5458 95.6782 36.4401 95.8535 36.3688C96.0289 36.2974 96.2167 36.2619 96.406 36.2644H104.305C104.494 36.2619 104.682 36.2974 104.858 36.3688C105.033 36.4401 105.192 36.5458 105.326 36.6796C105.46 36.8135 105.566 36.9728 105.637 37.1481C105.708 37.3235 105.744 37.5113 105.741 37.7006V45.5998ZM105.741 32.3147C105.744 32.504 105.708 32.6919 105.637 32.8672C105.566 33.0425 105.46 33.2018 105.326 33.3357C105.192 33.4695 105.033 33.5752 104.858 33.6466C104.682 33.7179 104.494 33.7534 104.305 33.751H96.406C96.2167 33.7534 96.0289 33.7179 95.8535 33.6466C95.6782 33.5752 95.5189 33.4695 95.385 33.3357C95.2512 33.2018 95.1455 33.0425 95.0742 32.8672C95.0028 32.6919 94.9673 32.504 94.9697 32.3147V24.4155C94.9673 24.2263 95.0028 24.0384 95.0742 23.8631C95.1455 23.6877 95.2512 23.5284 95.385 23.3946C95.5189 23.2607 95.6782 23.155 95.8535 23.0837C96.0289 23.0124 96.2167 22.9769 96.406 22.9793H104.305C104.494 22.9769 104.682 23.0124 104.858 23.0837C105.033 23.155 105.192 23.2607 105.326 23.3946C105.46 23.5284 105.566 23.6877 105.637 23.8631C105.708 24.0384 105.744 24.2263 105.741 24.4155V32.3147Z" fill="#6A7FD4"/>
<path d="M85.6344 25.8519H80.4281V31.0582H85.6344V25.8519Z" fill="#6A7FD4"/>
<path d="M103.049 39.137H97.8425V44.3433H103.049V39.137Z" fill="#6A7FD4"/>
<path d="M103.049 52.6016H97.8425V57.8079H103.049V52.6016Z" fill="#6A7FD4"/>
<path d="M103.049 25.8519H97.8425V31.0582H103.049V25.8519Z" fill="#6A7FD4"/>
<path d="M85.6344 39.137H80.4281V44.3433H85.6344V39.137Z" fill="#6A7FD4"/>
<path d="M106.819 78.0945C106.819 77.5708 106.611 77.0685 106.241 76.6981C105.87 76.3278 105.368 76.1197 104.844 76.1197C104.32 76.1197 103.818 76.3278 103.448 76.6981C103.077 77.0685 102.869 77.5708 102.869 78.0945V84.737C102.869 85.1179 102.718 85.4832 102.449 85.7526C102.179 86.0219 101.814 86.1732 101.433 86.1732C101.052 86.1732 100.687 86.0219 100.418 85.7526C100.148 85.4832 99.9969 85.1179 99.9969 84.737V71.452C99.9969 70.952 99.7983 70.4726 99.4448 70.1191C99.0913 69.7655 98.6118 69.5669 98.1119 69.5669C97.6119 69.5669 97.1325 69.7655 96.779 70.1191C96.4254 70.4726 96.2268 70.952 96.2268 71.452V84.9165C96.2292 85.1058 96.1937 85.2937 96.1224 85.469C96.0511 85.6443 95.9454 85.8036 95.8115 85.9375C95.6777 86.0713 95.5184 86.177 95.3431 86.2484C95.1677 86.3197 94.9799 86.3552 94.7906 86.3528C94.5979 86.3691 94.4039 86.3432 94.2222 86.2769C94.0405 86.2105 93.8755 86.1052 93.7387 85.9684C93.602 85.8317 93.4967 85.6667 93.4303 85.485C93.3639 85.3033 93.338 85.1093 93.3544 84.9165V65.7071C93.3544 65.1833 93.1463 64.6811 92.776 64.3107C92.4056 63.9404 91.9033 63.7323 91.3796 63.7323C90.8558 63.7323 90.3535 63.9404 89.9832 64.3107C89.6128 64.6811 89.4048 65.1833 89.4048 65.7071V84.9165C89.4048 85.2975 89.2535 85.6628 88.9841 85.9321C88.7148 86.2015 88.3495 86.3528 87.9686 86.3528C87.5877 86.3528 87.2224 86.2015 86.953 85.9321C86.6837 85.6628 86.5323 85.2975 86.5323 84.9165V71.452C86.5323 70.9282 86.3243 70.4259 85.9539 70.0556C85.5836 69.6852 85.0813 69.4772 84.5575 69.4772C84.0338 69.4772 83.5315 69.6852 83.1611 70.0556C82.7908 70.4259 82.5827 70.9282 82.5827 71.452V91.7386C82.5827 92.1195 82.4314 92.4848 82.1621 92.7542C81.8927 93.0235 81.5274 93.1748 81.1465 93.1748C80.7656 93.1748 80.4003 93.0235 80.131 92.7542C79.8616 92.4848 79.7103 92.1195 79.7103 91.7386V86.7118C79.7103 86.1881 79.5022 85.6858 79.1319 85.3154C78.7615 84.9451 78.2592 84.737 77.7355 84.737C77.2117 84.737 76.7095 84.9451 76.3391 85.3154C75.9688 85.6858 75.7607 86.1881 75.7607 86.7118V100.535C75.7476 101.304 75.9203 102.065 76.2642 102.752C76.608 103.44 77.1127 104.034 77.7355 104.485C77.9071 104.606 78.0461 104.768 78.14 104.956C78.234 105.144 78.28 105.352 78.2741 105.562V112.384H103.228V105.562C103.241 105.356 103.296 105.154 103.388 104.969C103.481 104.784 103.61 104.619 103.767 104.485C104.376 104.021 104.871 103.424 105.213 102.74C105.555 102.055 105.736 101.301 105.742 100.535V78.0945H106.819Z" fill="#D1D1D1"/>
<path d="M35.9052 84.737C35.3829 84.7417 34.8833 84.9513 34.514 85.3206C34.1446 85.6899 33.9351 86.1895 33.9304 86.7118V91.7386C33.9304 92.1195 33.7791 92.4848 33.5097 92.7542C33.2404 93.0235 32.8751 93.1748 32.4942 93.1748C32.1133 93.1748 31.748 93.0235 31.4786 92.7542C31.2093 92.4848 31.058 92.1195 31.058 91.7386V71.452C31.058 70.952 30.8594 70.4726 30.5058 70.1191C30.1523 69.7655 29.6729 69.5669 29.1729 69.5669C28.673 69.5669 28.1935 69.7655 27.84 70.1191C27.4865 70.4726 27.2879 70.952 27.2879 71.452V84.9165C27.2879 85.2975 27.1366 85.6628 26.8672 85.9321C26.5979 86.2015 26.2326 86.3528 25.8517 86.3528C25.4707 86.3528 25.1054 86.2015 24.8361 85.9321C24.5667 85.6628 24.4154 85.2975 24.4154 84.9165V65.7071C24.4154 65.1833 24.2074 64.6811 23.837 64.3107C23.4667 63.9404 22.9644 63.7323 22.4406 63.7323C21.9169 63.7323 21.4146 63.9404 21.0442 64.3107C20.6739 64.6811 20.4658 65.1833 20.4658 65.7071V84.9165C20.4682 85.1058 20.4327 85.2937 20.3614 85.469C20.2901 85.6443 20.1844 85.8036 20.0505 85.9375C19.9167 86.0713 19.7574 86.177 19.5821 86.2484C19.4067 86.3197 19.2189 86.3552 19.0296 86.3528C18.8369 86.3691 18.6429 86.3432 18.4612 86.2769C18.2795 86.2105 18.1145 86.1052 17.9777 85.9684C17.8409 85.8317 17.7357 85.6667 17.6693 85.485C17.6029 85.3033 17.577 85.1093 17.5934 84.9165V71.452C17.5934 70.9282 17.3853 70.4259 17.015 70.0556C16.6446 69.6852 16.1423 69.4772 15.6186 69.4772C15.0948 69.4772 14.5925 69.6852 14.2222 70.0556C13.8518 70.4259 13.6438 70.9282 13.6438 71.452V84.737C13.6438 85.1179 13.4925 85.4832 13.2231 85.7526C12.9538 86.0219 12.5885 86.1732 12.2076 86.1732C11.8267 86.1732 11.4613 86.0219 11.192 85.7526C10.9227 85.4832 10.7713 85.1179 10.7713 84.737V78.0945C10.7713 77.5708 10.5633 77.0685 10.1929 76.6981C9.82259 76.3278 9.32029 76.1197 8.79654 76.1197C8.27279 76.1197 7.77049 76.3278 7.40014 76.6981C7.02979 77.0685 6.82173 77.5708 6.82173 78.0945V100.535C6.80867 101.304 6.98139 102.065 7.3252 102.752C7.66901 103.44 8.17376 104.034 8.79654 104.485C8.96814 104.606 9.1071 104.768 9.20106 104.956C9.29503 105.144 9.34108 105.352 9.33512 105.562V112.384H34.2894V105.562C34.3025 105.356 34.3569 105.154 34.4494 104.969C34.5419 104.784 34.6707 104.619 34.828 104.485C35.4371 104.021 35.9318 103.424 36.2742 102.74C36.6165 102.055 36.7974 101.301 36.8028 100.535V86.7118C37.7005 85.6347 36.9824 84.737 35.9052 84.737Z" fill="#D1D1D1"/>
</g>
<defs>
<clipPath id="clip0">
<rect width="114" height="112.384" fill="white"/>
</clipPath>
</defs>
</svg>
