<svg width="108" height="112" viewBox="0 0 108 112" fill="none" xmlns="http://www.w3.org/2000/svg">
<g clip-path="url(#clip0)">
<path d="M59.543 58.4702V57.3973C59.543 55.9746 58.9778 54.6102 57.9718 53.6042C56.9658 52.5982 55.6014 52.0331 54.1787 52.0331H53.8211C52.4396 52.1507 51.1542 52.7884 50.2248 53.8174C49.2954 54.8464 48.7913 56.1898 48.8145 57.5761V59.0066C47.2838 57.5599 46.3844 55.5685 46.3112 53.4635C46.3252 51.4761 47.1209 49.5741 48.5263 48.1687C49.9316 46.7634 51.8337 45.9677 53.8211 45.9536C55.2558 45.9883 56.6519 46.4258 57.8499 47.216C59.0479 48.0062 59.9995 49.1173 60.5962 50.4226C61.1929 51.7278 61.4105 53.1745 61.2243 54.5975C61.038 56.0205 60.4554 57.3625 59.543 58.4702Z" fill="#6A7FD4"/>
<path d="M53.8212 35.9404C49.0789 35.9404 44.5309 37.8243 41.1776 41.1776C37.8243 44.5309 35.9404 49.0789 35.9404 53.8212C35.9035 57.6524 37.1258 61.3896 39.4194 64.4586C41.713 67.5275 44.951 69.7583 48.6358 70.808V62.5828C47.0719 61.7137 45.7675 60.4441 44.8562 58.9044C43.945 57.3647 43.4598 55.6103 43.4503 53.8212C43.4503 51.1181 44.5241 48.5257 46.4355 46.6144C48.3469 44.703 50.9393 43.6292 53.6424 43.6292C56.3455 43.6292 58.9379 44.703 60.8492 46.6144C62.7606 48.5257 63.8344 51.1181 63.8344 53.8212C63.842 55.4824 63.4376 57.1195 62.6575 58.5861C61.8774 60.0527 60.7459 61.303 59.3642 62.2252V64.3709C60.1549 63.8432 61.0979 63.5917 62.0463 63.6557C62.9218 63.6639 63.783 63.8787 64.5598 64.2826C65.3366 64.6865 66.007 65.2682 66.5165 65.9802C68.9418 63.4848 70.5779 60.33 71.2202 56.91C71.8626 53.4901 71.4827 49.9566 70.1281 46.7513C68.7735 43.5461 66.5042 40.8111 63.6039 38.8883C60.7036 36.9655 57.301 35.9402 53.8212 35.9404Z" fill="#6A7FD4"/>
<path d="M84.9338 55.0729H74.3842V52.3907H84.9338C84.7547 53.2758 84.7547 54.1878 84.9338 55.0729Z" fill="#D1D1D1"/>
<path d="M55.2516 23.0663H52.5695V33.2583H55.2516V23.0663Z" fill="#D1D1D1"/>
<path d="M33.437 55.0729H23.0662C23.2448 54.1878 23.2448 53.2759 23.0662 52.3907H33.437V55.0729Z" fill="#D1D1D1"/>
<path d="M77.7813 34.1523L70.2714 41.4834C69.7306 40.7796 69.1325 40.1218 68.4833 39.5166L75.8144 32.1854L77.7813 34.1523Z" fill="#D1D1D1"/>
<path d="M39.5164 39.159C38.8724 39.7693 38.2747 40.4268 37.7283 41.1259L30.9336 34.3311C31.6756 33.768 32.3373 33.1063 32.9005 32.3643L39.5164 39.159Z" fill="#D1D1D1"/>
<path d="M99.775 53.6424C99.775 54.0314 99.6596 54.4117 99.4435 54.7352C99.2274 55.0586 98.9202 55.3107 98.5608 55.4596C98.2014 55.6085 97.8059 55.6474 97.4244 55.5715C97.0428 55.4956 96.6924 55.3083 96.4173 55.0332C96.1422 54.7581 95.9549 54.4077 95.879 54.0261C95.8031 53.6446 95.842 53.2491 95.9909 52.8897C96.1398 52.5303 96.3919 52.2231 96.7153 52.007C97.0388 51.7909 97.4191 51.6755 97.8081 51.6755C98.3283 51.6802 98.8259 51.8889 99.1937 52.2568C99.5616 52.6246 99.7703 53.1222 99.775 53.6424Z" fill="#6A7FD4"/>
<path d="M97.8079 43.4503C95.1048 43.4503 92.5124 44.5241 90.601 46.4355C88.6896 48.3469 87.6158 50.9393 87.6158 53.6424C87.6158 56.3455 88.6896 58.9379 90.601 60.8492C92.5124 62.7606 95.1048 63.8344 97.8079 63.8344C100.511 63.8344 103.103 62.7606 105.015 60.8492C106.926 58.9379 108 56.3455 108 53.6424C108 50.9393 106.926 48.3469 105.015 46.4355C103.103 44.5241 100.511 43.4503 97.8079 43.4503ZM97.8079 58.2914C97.1961 58.2961 96.5894 58.1791 96.0232 57.9472C95.457 57.7152 94.9426 57.373 94.5099 56.9403C94.0773 56.5077 93.735 55.9933 93.5031 55.4271C93.2711 54.8609 93.1541 54.2542 93.1589 53.6424C93.1589 52.4094 93.6487 51.2269 94.5206 50.355C95.3924 49.4832 96.5749 48.9934 97.8079 48.9934C99.0409 48.9934 100.223 49.4832 101.095 50.355C101.967 51.2269 102.457 52.4094 102.457 53.6424C102.462 54.2542 102.345 54.8609 102.113 55.4271C101.881 55.9933 101.539 56.5077 101.106 56.9403C100.673 57.373 100.159 57.7152 99.5926 57.9472C99.0264 58.1791 98.4197 58.2961 97.8079 58.2914Z" fill="#6A7FD4"/>
<path d="M55.788 10.192C55.788 10.581 55.6727 10.9613 55.4565 11.2847C55.2404 11.6082 54.9332 11.8603 54.5738 12.0092C54.2144 12.158 53.819 12.197 53.4374 12.1211C53.0559 12.0452 52.7054 11.8579 52.4303 11.5828C52.1553 11.3077 51.9679 10.9572 51.892 10.5757C51.8161 10.1942 51.8551 9.79869 52.004 9.43929C52.1528 9.07989 52.4049 8.7727 52.7284 8.55658C53.0518 8.34045 53.4321 8.2251 53.8211 8.2251C54.3413 8.22976 54.8389 8.43849 55.2068 8.80634C55.5746 9.1742 55.7834 9.67178 55.788 10.192Z" fill="#6A7FD4"/>
<path d="M53.8211 0C51.118 0 48.5256 1.0738 46.6142 2.98518C44.7028 4.89656 43.629 7.48895 43.629 10.1921C43.657 12.8865 44.7397 15.4627 46.6451 17.3681C48.5504 19.2734 51.1266 20.3562 53.8211 20.3841C56.5242 20.3841 59.1166 19.3103 61.028 17.3989C62.9393 15.4875 64.0131 12.8952 64.0131 10.1921C64.0131 7.48895 62.9393 4.89656 61.028 2.98518C59.1166 1.0738 56.5242 0 53.8211 0V0ZM53.8211 14.8411C53.2092 14.8458 52.6026 14.7288 52.0364 14.4969C51.4702 14.2649 50.9558 13.9227 50.5231 13.49C50.0905 13.0574 49.7482 12.543 49.5163 11.9768C49.2843 11.4106 49.1673 10.8039 49.1721 10.1921C49.1721 8.95906 49.6619 7.77657 50.5337 6.90471C51.4056 6.03285 52.5881 5.54305 53.8211 5.54305C55.0541 5.54305 56.2366 6.03285 57.1084 6.90471C57.9803 7.77657 58.4701 8.95906 58.4701 10.1921C58.4749 10.8039 58.3579 11.4106 58.1259 11.9768C57.894 12.543 57.5517 13.0574 57.119 13.49C56.6864 13.9227 56.172 14.2649 55.6058 14.4969C55.0396 14.7288 54.4329 14.8458 53.8211 14.8411Z" fill="#6A7FD4"/>
<path d="M12.338 53.6424C12.338 54.0314 12.2226 54.4117 12.0065 54.7352C11.7903 55.0586 11.4832 55.3107 11.1238 55.4596C10.7644 55.6085 10.3689 55.6474 9.98734 55.5715C9.6058 55.4956 9.25534 55.3083 8.98026 55.0332C8.70519 54.7581 8.51786 54.4077 8.44197 54.0261C8.36608 53.6446 8.40503 53.2491 8.5539 52.8897C8.70277 52.5303 8.95487 52.2231 9.27832 52.007C9.60177 51.7909 9.98205 51.6755 10.3711 51.6755C10.8913 51.6802 11.3888 51.8889 11.7567 52.2568C12.1246 52.6246 12.3333 53.1222 12.338 53.6424Z" fill="#6A7FD4"/>
<path d="M10.1921 43.4504C8.17626 43.4504 6.20573 44.0481 4.52966 45.168C2.85358 46.288 1.54724 47.8797 0.775828 49.7421C0.00441605 51.6044 -0.197421 53.6537 0.195842 55.6308C0.589105 57.6079 1.5598 59.4239 2.98519 60.8493C4.41057 62.2747 6.22662 63.2454 8.20369 63.6386C10.1808 64.0319 12.23 63.8301 14.0924 63.0586C15.9547 62.2872 17.5465 60.9809 18.6664 59.3048C19.7864 57.6288 20.3841 55.6582 20.3841 53.6424C20.4009 52.2993 20.1488 50.9664 19.6425 49.7223C19.1363 48.4782 18.3862 47.3479 17.4364 46.3981C16.4866 45.4483 15.3563 44.6982 14.1122 44.192C12.868 43.6857 11.5352 43.4336 10.1921 43.4504ZM10.1921 58.2914C8.95906 58.2914 7.77657 57.8016 6.90471 56.9298C6.03286 56.0579 5.54305 54.8754 5.54305 53.6424C5.54305 52.4094 6.03286 51.2269 6.90471 50.3551C7.77657 49.4832 8.95906 48.9934 10.1921 48.9934C11.4179 49.0163 12.5871 49.5135 13.454 50.3804C14.321 51.2474 14.8181 52.4166 14.8411 53.6424C14.8746 54.2618 14.7773 54.8812 14.5556 55.4605C14.3338 56.0397 13.9925 56.5657 13.554 57.0043C13.1154 57.4429 12.5893 57.7842 12.0101 58.0059C11.4309 58.2277 10.8114 58.325 10.1921 58.2914Z" fill="#6A7FD4"/>
<path d="M89.9405 27C89.9405 28.2731 89.5629 29.5177 88.8556 30.5762C88.1483 31.6348 87.143 32.4599 85.9667 32.9471C84.7905 33.4343 83.4962 33.5618 82.2476 33.3134C80.9989 33.065 79.8519 32.4519 78.9517 31.5517C78.0514 30.6514 77.4384 29.5045 77.19 28.2558C76.9416 27.0071 77.0691 25.7128 77.5563 24.5366C78.0435 23.3604 78.8685 22.3551 79.9271 21.6477C80.9857 20.9404 82.2302 20.5629 83.5034 20.5629C84.3494 20.5605 85.1875 20.7254 85.9695 21.0481C86.7516 21.3707 87.4621 21.8448 88.0603 22.443C88.6586 23.0412 89.1326 23.7518 89.4553 24.5338C89.7779 25.3159 89.9428 26.154 89.9405 27Z" fill="#6A7FD4"/>
<path d="M31.8279 27C31.8279 28.2731 31.4504 29.5177 30.7431 30.5762C30.0358 31.6348 29.0304 32.4599 27.8542 32.9471C26.678 33.4343 25.3837 33.5618 24.135 33.3134C22.8863 33.065 21.7394 32.4519 20.8391 31.5517C19.9389 30.6514 19.3258 29.5045 19.0774 28.2558C18.829 27.0071 18.9565 25.7128 19.4437 24.5366C19.9309 23.3604 20.756 22.3551 21.8146 21.6477C22.8731 20.9404 24.1177 20.5629 25.3908 20.5629C26.2368 20.5605 27.0749 20.7254 27.857 21.0481C28.639 21.3707 29.3496 21.8448 29.9478 22.443C30.546 23.0412 31.0201 23.7518 31.3427 24.5338C31.6654 25.3159 31.8303 26.154 31.8279 27Z" fill="#6A7FD4"/>
<path d="M81.1789 104.424H48.6359V111.755H81.1789V104.424Z" fill="#D1D1D1"/>
<path d="M80.9998 72.2384C81.0071 71.8841 80.9428 71.5321 80.8106 71.2034C80.6784 70.8747 80.4811 70.5761 80.2305 70.3256C79.98 70.075 79.6814 69.8777 79.3527 69.7455C79.024 69.6133 78.6719 69.5489 78.3177 69.5563C77.6121 69.5744 76.9403 69.8627 76.4412 70.3619C75.9421 70.861 75.6537 71.5327 75.6356 72.2384V85.8278C75.6356 86.2072 75.4849 86.571 75.2166 86.8393C74.9484 87.1075 74.5845 87.2582 74.2051 87.2582C73.8257 87.2582 73.4619 87.1075 73.1936 86.8393C72.9254 86.571 72.7747 86.2072 72.7747 85.8278V70.6291C72.782 70.2749 72.7176 69.9228 72.5854 69.5941C72.4532 69.2654 72.2559 68.9668 72.0054 68.7163C71.7548 68.4658 71.4562 68.2685 71.1275 68.1363C70.7988 68.0041 70.4468 67.9397 70.0925 67.947C69.3869 67.9651 68.7152 68.2535 68.216 68.7526C67.7169 69.2517 67.4285 69.9235 67.4104 70.6291V84.3973C67.4104 84.7767 67.2597 85.1405 66.9915 85.4088C66.7232 85.6771 66.3594 85.8278 65.98 85.8278C65.6006 85.8278 65.2367 85.6771 64.9685 85.4088C64.7002 85.1405 64.5495 84.7767 64.5495 84.3973V69.0198C64.5568 68.6656 64.4924 68.3136 64.3602 67.9848C64.228 67.6561 64.0307 67.3575 63.7802 67.107C63.5297 66.8565 63.2311 66.6592 62.9024 66.527C62.5737 66.3948 62.2216 66.3304 61.8674 66.3377C61.1617 66.3558 60.49 66.6442 59.9909 67.1433C59.4918 67.6424 59.2034 68.3142 59.1853 69.0198V82.9669C59.1853 83.3462 59.0346 83.7101 58.7663 83.9783C58.498 84.2466 58.1342 84.3973 57.7548 84.3973C57.3754 84.3973 57.0116 84.2466 56.7433 83.9783C56.475 83.7101 56.3243 83.3462 56.3243 82.9669V57.5761C56.3278 57.2076 56.2548 56.8423 56.1099 56.5034C55.9649 56.1645 55.7513 55.8594 55.4824 55.6073C55.2135 55.3552 54.8952 55.1617 54.5477 55.0389C54.2002 54.9161 53.831 54.8668 53.4634 54.894C52.7713 54.9889 52.1368 55.3306 51.6768 55.8564C51.2168 56.3821 50.9622 57.0564 50.9601 57.7549V88.1523C50.955 88.7094 50.7853 89.2527 50.4723 89.7136C50.1593 90.1746 49.717 90.5327 49.201 90.7429C48.685 90.9531 48.1183 91.0061 47.5723 90.8951C47.0263 90.7841 46.5253 90.5142 46.1323 90.1192L41.3045 85.2913C41.044 85.0266 40.7307 84.8195 40.3849 84.6838C40.0392 84.5481 39.6688 84.4866 39.2977 84.5035C38.9266 84.5204 38.5633 84.6152 38.2313 84.7817C37.8993 84.9482 37.6061 85.1828 37.3707 85.4702C36.9494 86.0272 36.7524 86.722 36.8186 87.4173C36.8848 88.1125 37.2094 88.7576 37.7283 89.2251L50.2449 101.742H80.6422V72.2384H80.9998Z" fill="#D1D1D1"/>
</g>
<defs>
<clipPath id="clip0">
<rect width="108" height="111.755" fill="white"/>
</clipPath>
</defs>
</svg>
