<svg width="115" height="105" fill="none" xmlns="http://www.w3.org/2000/svg"><g clip-path="url(#clip0)"><path d="M48.695 0H1.438A1.33 1.33 0 000 1.437v35.22a1.42 1.42 0 001.438 1.437h23.359v8.625a1.33 1.33 0 002.336.898l9.523-9.523h12.22a1.418 1.418 0 001.437-1.438V1.437A1.797 1.797 0 0048.695 0zM41.15 28.21H8.985a1.42 1.42 0 01-1.438-1.437 1.276 1.276 0 011.438-1.258h31.984a1.42 1.42 0 011.437 1.438 1.132 1.132 0 01-1.257 1.258zm0-8.085H8.985a1.438 1.438 0 010-2.875h31.984a1.42 1.42 0 011.437 1.437 1.276 1.276 0 01-1.257 1.438zm0-8.086H8.985a1.42 1.42 0 01-1.438-1.438 1.797 1.797 0 011.438-1.257h31.984a1.42 1.42 0 011.437 1.437 1.222 1.222 0 01-1.257 1.258zM113.743 43.484h-40.61a1.42 1.42 0 00-1.437 1.438V74.93a1.42 1.42 0 001.437 1.437h5.031v7.188a1.33 1.33 0 002.336.898l8.086-8.086h24.977a1.423 1.423 0 001.333-.884c.071-.176.107-.364.104-.553V44.922a1.382 1.382 0 00-1.257-1.438zm-7.008 24.618H80.141a1.438 1.438 0 010-2.875h26.594a1.421 1.421 0 011.437 1.437c-.179.719-.719 1.438-1.437 1.438zm0-7.008H80.141a1.418 1.418 0 01-1.438-1.438 1.329 1.329 0 011.438-1.437h26.594a1.436 1.436 0 011.016 2.454c-.269.27-.635.42-1.016.42zm0-6.828H80.141a1.437 1.437 0 110-2.875h26.594a1.423 1.423 0 011.333.884c.071.176.107.364.104.553-.179.899-.719 1.438-1.437 1.438z" fill="#6A7FD4"/><path d="M66.484 42.766a40.142 40.142 0 01-27.851 0c0-.72.18-1.438.18-2.157h9.882a4.186 4.186 0 004.133-4.133V20.126a40.285 40.285 0 019.344 1.078 126.236 126.236 0 014.312 21.563zM67.563 64.148H37.375c0 5.75.36 10.961.719 15.993a42.748 42.748 0 0128.39 0 142.995 142.995 0 001.079-15.993z" fill="#D1D1D1"/><path d="M66.664 45.46a41.652 41.652 0 01-28.39 0c-.521 5.315-.761 10.653-.72 15.993h30.008c-.18-5.57-.359-10.96-.898-15.992zM75.469 83.555c-.015.426.045.852.18 1.257a36.818 36.818 0 00-6.47-3.414 34.9 34.9 0 00.36-4.312 3.845 3.845 0 003.414 1.977h2.516v4.492zM92 79.063a45.176 45.176 0 01-8.086 12.757c-.18-.18-.36-.539-.539-.718l-.18-.18a30.744 30.744 0 00-3.593-3.234 3.593 3.593 0 002.695-1.258l7.367-7.368H92zM89.125 40.79H76.008a58.116 58.116 0 008.086-6.83 60.637 60.637 0 015.031 6.83zM37.734 102.422a145.44 145.44 0 01-3.054-17.43 45.66 45.66 0 00-12.04 8.086 47.153 47.153 0 0015.094 9.344zM37.375 83.734c.76 6.661 1.96 13.264 3.594 19.766a43.293 43.293 0 0022.46 0 108.462 108.462 0 003.595-19.766 42.12 42.12 0 00-29.649 0zM66.664 102.422a44.921 44.921 0 0015.274-9.344 43.466 43.466 0 00-12.04-8.266c-.898 6.29-1.976 12.399-3.234 17.61zM35.578 81.219c-.539-5.57-.898-11.32-.898-17.07H9.703A42.945 42.945 0 0020.844 91.64a47.691 47.691 0 0114.734-10.422zM82.117 32.164A42.39 42.39 0 0065.227 22.1 135.494 135.494 0 0169 41.687a43.124 43.124 0 0013.117-9.523zM35.578 44.562c-.539 5.57-.898 11.32-.898 17.07H9.703a42.352 42.352 0 016.29-21.023h6.109v5.93a4.007 4.007 0 006.828 2.875l5.39-5.39c.433.146.854.326 1.258.538z" fill="#D1D1D1"/></g><defs><clipPath id="clip0"><path fill="#fff" d="M0 0h115v104.991H0z"/></clipPath></defs></svg>