<svg width="180" height="18" fill="none" xmlns="http://www.w3.org/2000/svg"><g clip-path="url(#clip0)" fill="#2E3966"><path d="M10.84 6.674L3.351 17.152H0V.291h3.854v10.478L11.321.291h3.373v16.861h-3.855V6.674zM32.378 17.152h-3.854v-6.794H22.38v6.794h-3.854V.291h3.854v6.453h6.143V.291h3.854v16.861zM46.614 17.343h-3.853V15.08c-2.286 0-4.109-.586-5.47-1.757-1.362-1.17-2.031-2.785-2.008-4.842 0-2.058.683-3.647 2.048-4.768 1.365-1.12 3.18-1.73 5.445-1.831V.1h3.854v1.782c2.261.043 4.074.654 5.44 1.831a5.927 5.927 0 012.097 4.768c0 2.057-.69 3.663-2.073 4.817-1.381 1.155-3.203 1.748-5.464 1.782l-.016 2.263zm-7.25-8.862c0 2.007 1.132 3.027 3.397 3.061V5.42a3.723 3.723 0 00-2.545.868 2.91 2.91 0 00-.853 2.193zm10.693 0a2.91 2.91 0 00-.853-2.193 3.794 3.794 0 00-2.59-.868v6.122c1.218-.02 2.097-.278 2.635-.773a2.977 2.977 0 00.808-2.288zM56.842 8.722a8.43 8.43 0 012.479-6.213A8.777 8.777 0 0165.805 0c2.63 0 4.777.798 6.428 2.389 1.65 1.59 2.509 3.698 2.509 6.333a8.295 8.295 0 01-2.554 6.263 8.822 8.822 0 01-6.404 2.459 9.034 9.034 0 01-6.458-2.39c-1.66-1.585-2.487-3.696-2.484-6.332zm4.095 0a5.083 5.083 0 001.42 3.638 5.019 5.019 0 007.025.045 5.43 5.43 0 001.275-3.683 4.985 4.985 0 00-1.395-3.684 4.717 4.717 0 00-3.468-1.425 4.643 4.643 0 00-3.512 1.425 5.057 5.057 0 00-1.345 3.684zM81.637 11.422v5.73h-3.854V.293c.738 0 1.55 0 2.434-.026.883-.025 1.806 0 2.72 0 2.379 0 4.113.53 5.204 1.59a5.293 5.293 0 011.616 4.015 5.41 5.41 0 01-1.712 4.015 6.288 6.288 0 01-4.516 1.636c-.848-.03-1.475-.055-1.892-.1zm1.686-7.568h-.216l-.602.025h-.868v3.854c.583.074 1.17.115 1.757.12.584.03 1.16-.147 1.625-.501a1.886 1.886 0 00.643-1.556c-.01-1.29-.783-1.942-2.339-1.942zM96.742 17.152h-3.854V.291h3.874l5.204 7.106L106.879.29h3.638v16.861h-3.854V6.408l-4.697 6.58h-.552l-4.672-6.525v10.69zM117.417 17.152h-3.879L120.564.291h3.442l7.026 16.861h-4.12l-1.395-3.543h-6.674l-1.426 3.543zm6.624-7.156l-1.876-4.767-1.907 4.767h3.783zM135.152 3.904h-5.059V.291h13.971v3.613h-5.058v13.248h-3.854V3.904zM157.814 6.674l-7.467 10.478h-3.372V.291h3.854v10.478L158.296.291h3.372v16.861h-3.854V6.674zM169.356 17.152h-3.854V.291h3.854v7.347l5.52-7.347h4.617l-6.338 7.778 6.84 9.083h-4.888l-5.756-8.029.005 8.03z"/></g><defs><clipPath id="clip0"><path fill="#fff" d="M0 0h180v17.439H0z"/></clipPath></defs></svg>