<svg width="248" height="24" fill="none" xmlns="http://www.w3.org/2000/svg"><g clip-path="url(#clip0)" fill="#555865"><path d="M14.918 9.185L4.614 23.606H0V.4h5.304v14.421L15.581.401h4.641v23.205h-5.304V9.186zM44.56 23.606h-5.304v-9.351h-8.453v9.351h-5.305V.4h5.305v8.882h8.453V.4h5.304v23.206zM64.154 23.869H58.85v-3.115c-3.145 0-5.654-.806-7.528-2.417-1.874-1.612-2.795-3.833-2.763-6.665 0-2.832.94-5.019 2.818-6.561 1.879-1.543 4.377-2.383 7.494-2.521V.138h5.304V2.59c3.112.06 5.608.9 7.487 2.52a8.156 8.156 0 012.886 6.562c0 2.832-.95 5.042-2.852 6.63-1.901 1.589-4.409 2.406-7.521 2.452l-.02 3.115zm-9.98-12.197c0 2.763 1.559 4.167 4.676 4.213V7.459a5.125 5.125 0 00-3.502 1.195 4.006 4.006 0 00-1.174 3.018zm14.718 0a4.006 4.006 0 00-1.174-3.018 5.221 5.221 0 00-3.564-1.195v8.426c1.676-.028 2.885-.382 3.626-1.064a4.095 4.095 0 001.112-3.149zM78.23 12.003a11.602 11.602 0 013.411-8.55A12.08 12.08 0 0190.565 0c3.619 0 6.575 1.098 8.847 3.287 2.272 2.19 3.453 5.09 3.453 8.716a11.401 11.401 0 01-3.515 8.62 12.141 12.141 0 01-8.813 3.384 12.432 12.432 0 01-8.889-3.288c-2.283-2.182-3.423-5.087-3.418-8.716zm5.635 0a6.998 6.998 0 001.955 5.008 6.907 6.907 0 009.669.062 7.473 7.473 0 001.754-5.07 6.859 6.859 0 00-1.92-5.069 6.492 6.492 0 00-4.772-1.961 6.388 6.388 0 00-4.835 1.961 6.961 6.961 0 00-1.85 5.07zM112.354 15.719v7.887h-5.304V.4c1.016 0 2.134 0 3.35-.034 1.215-.035 2.486 0 3.743 0 3.274 0 5.661.73 7.162 2.19a7.298 7.298 0 011.703 2.524c.383.952.56 1.975.521 3a7.431 7.431 0 01-.596 3.011 7.434 7.434 0 01-1.759 2.515 8.655 8.655 0 01-6.216 2.251c-1.167-.041-2.03-.076-2.604-.138zm2.321-10.415h-.297l-.829.035h-1.195v5.304a20.79 20.79 0 002.418.165 3.41 3.41 0 002.237-.69 2.593 2.593 0 00.884-2.141c-.013-1.775-1.077-2.673-3.218-2.673zM133.143 23.606h-5.304V.4h5.332l7.162 9.78L147.094.4h5.007v23.206h-5.304V8.82l-6.464 9.055h-.76l-6.43-8.979v14.711zM161.597 23.606h-5.338L165.928.4h4.738l9.669 23.206h-5.67l-1.92-4.876h-9.186l-1.962 4.876zm9.117-9.849l-2.583-6.56-2.624 6.56h5.207zM186.005 5.373h-6.962V.4h19.228v4.973h-6.962v18.233h-5.304V5.373zM217.195 9.185l-10.277 14.421h-4.641V.4h5.304v14.421L217.858.401h4.641v23.205h-5.304V9.186zM233.08 23.606h-5.305V.4h5.305v10.111l7.597-10.11h6.354l-8.723 10.704 9.413 12.501h-6.727l-7.921-11.05.007 11.05z"/></g><defs><clipPath id="clip0"><path fill="#fff" d="M0 0h247.728v24H0z"/></clipPath></defs></svg>