<svg width="114" height="113" fill="none" xmlns="http://www.w3.org/2000/svg"><g clip-path="url(#clip0)"><path d="M50.627 25.852H45.42v5.206h5.207v-5.206zM50.627 39.137H45.42v5.206h5.207v-5.206zM33.033 25.852h-5.206v5.206h5.206v-5.206zM33.033 39.137h-5.206v5.206h5.206v-5.206zM68.04 39.137h-5.205v5.206h5.206v-5.206zM85.455 52.602H27.827v5.206h57.628v-5.206zM15.619 39.137h-5.207v5.206h5.207v-5.206zM68.04 25.852h-5.205v5.206h5.206v-5.206zM15.619 52.602h-5.207v5.206h5.207v-5.206zM15.619 25.852h-5.207v5.206h5.207v-5.206z" fill="#6A7FD4"/><path d="M112.204 15.978H57.987v-.718a2.19 2.19 0 012.154-2.155h24.237a4.847 4.847 0 000-9.694H37.7a2.19 2.19 0 01-2.154-2.155A1.274 1.274 0 0034.11 0a1.383 1.383 0 00-1.436 1.256 4.83 4.83 0 004.847 4.848h46.677a2.154 2.154 0 110 4.308H60.141a4.83 4.83 0 00-4.847 4.848v.718H1.256A1.275 1.275 0 000 17.414v48.832a1.382 1.382 0 001.256 1.436h12.567a4.524 4.524 0 014.488-.36v-1.615a4.633 4.633 0 014.668-4.668 4.523 4.523 0 014.668 4.668v1.616a5.027 5.027 0 014.488.359h50.806a4.524 4.524 0 014.489-.36v-1.615a4.668 4.668 0 019.335 0v1.616a5.027 5.027 0 014.488.359h11.31A1.418 1.418 0 00114 66.246V17.234a2.157 2.157 0 00-1.796-1.256zM18.312 59.064a1.419 1.419 0 01-1.437 1.437H8.976a1.417 1.417 0 01-1.436-1.437v-7.899a1.418 1.418 0 011.436-1.436h7.9a1.419 1.419 0 011.435 1.436v7.9zm0-13.464a1.418 1.418 0 01-1.437 1.436H8.976A1.419 1.419 0 017.54 45.6v-7.9a1.795 1.795 0 011.436-1.256h7.9a1.419 1.419 0 011.435 1.436v7.72zm0-13.285a1.419 1.419 0 01-1.437 1.436H8.976a1.419 1.419 0 01-1.436-1.436v-7.9a1.418 1.418 0 011.436-1.436h7.9a1.419 1.419 0 011.435 1.437v7.899zm41.83-7.9a1.419 1.419 0 011.436-1.436h7.72a1.42 1.42 0 011.436 1.437v7.899a1.419 1.419 0 01-1.437 1.436h-7.899a1.42 1.42 0 01-1.436-1.436v-7.9h.18zm0 13.465a1.42 1.42 0 011.436-1.436h7.72a1.42 1.42 0 011.436 1.436v7.9a1.42 1.42 0 01-1.437 1.435h-7.899a1.42 1.42 0 01-1.436-1.436V37.88h.18zM42.726 24.415a1.419 1.419 0 011.436-1.436h7.9a1.419 1.419 0 011.436 1.437v7.899a1.419 1.419 0 01-1.436 1.436h-7.9a1.419 1.419 0 01-1.436-1.436v-7.9zm0 13.465a1.42 1.42 0 011.436-1.436h7.9a1.419 1.419 0 011.436 1.436v7.9a1.42 1.42 0 01-1.436 1.435h-7.9a1.419 1.419 0 01-1.436-1.436V37.88zM25.134 24.415a1.419 1.419 0 011.436-1.436h7.899a1.419 1.419 0 011.436 1.437v7.899a1.419 1.419 0 01-1.436 1.436h-7.9a1.419 1.419 0 01-1.435-1.436v-7.9zm0 13.465a1.42 1.42 0 011.436-1.436h7.899a1.419 1.419 0 011.436 1.436v7.9a1.42 1.42 0 01-1.436 1.435h-7.9a1.419 1.419 0 01-1.435-1.436V37.88zm63.014 21.184a1.419 1.419 0 01-1.436 1.437H26.57a1.417 1.417 0 01-1.436-1.437v-7.899a1.419 1.419 0 011.436-1.436H86.89a1.42 1.42 0 011.436 1.436v7.9h-.18zm0-13.464a1.418 1.418 0 01-1.436 1.436h-7.9a1.42 1.42 0 01-1.436-1.436v-7.9a1.417 1.417 0 011.436-1.436h7.9a1.415 1.415 0 011.331.884c.072.175.107.363.105.553V45.6zm0-13.285a1.419 1.419 0 01-1.436 1.436h-7.9a1.42 1.42 0 01-1.436-1.436v-7.9a1.417 1.417 0 011.436-1.436h7.9a1.418 1.418 0 011.436 1.437v7.899zm17.593 26.75a1.413 1.413 0 01-.883 1.331 1.423 1.423 0 01-.553.105h-7.899a1.417 1.417 0 01-1.436-1.437v-7.899a1.417 1.417 0 011.436-1.436h7.899a1.425 1.425 0 011.021.415 1.41 1.41 0 01.415 1.021v7.9zm0-13.465a1.413 1.413 0 01-.883 1.332 1.425 1.425 0 01-.553.104h-7.899A1.42 1.42 0 0194.97 45.6v-7.9a1.417 1.417 0 011.436-1.436h7.899a1.421 1.421 0 011.332.884c.071.175.107.363.104.553V45.6zm0-13.285a1.413 1.413 0 01-.883 1.332 1.425 1.425 0 01-.553.104h-7.899a1.42 1.42 0 01-1.436-1.436v-7.9a1.417 1.417 0 011.436-1.436h7.899a1.425 1.425 0 011.021.416 1.41 1.41 0 01.415 1.02v7.9z" fill="#6A7FD4"/><path d="M85.634 25.852h-5.206v5.206h5.206v-5.206zM103.049 39.137h-5.207v5.206h5.207v-5.206zM103.049 52.602h-5.207v5.206h5.207v-5.206zM103.049 25.852h-5.207v5.206h5.207v-5.206zM85.634 39.137h-5.206v5.206h5.206v-5.206z" fill="#6A7FD4"/><path d="M106.819 78.094a1.976 1.976 0 00-3.95 0v6.643a1.437 1.437 0 11-2.872 0V71.452a1.885 1.885 0 10-3.77 0v13.465a1.419 1.419 0 01-1.436 1.436 1.331 1.331 0 01-1.437-1.436v-19.21a1.975 1.975 0 00-3.95 0v19.21a1.436 1.436 0 11-2.872 0V71.451a1.974 1.974 0 10-3.95 0v20.287a1.437 1.437 0 01-2.872 0v-5.027a1.975 1.975 0 00-3.95 0v13.823a4.772 4.772 0 001.975 3.95 1.272 1.272 0 01.54 1.077v6.822h24.953v-6.822a1.554 1.554 0 01.539-1.077 5.013 5.013 0 001.975-3.95v-22.44h1.077zM35.905 84.737a1.993 1.993 0 00-1.975 1.975v5.027a1.436 1.436 0 01-2.872 0V71.452a1.885 1.885 0 10-3.77 0v13.465a1.436 1.436 0 11-2.873 0v-19.21a1.975 1.975 0 10-3.95 0v19.21a1.419 1.419 0 01-1.435 1.436 1.331 1.331 0 01-1.437-1.436V71.451a1.975 1.975 0 00-3.95 0v13.285a1.436 1.436 0 01-2.872 0v-6.642a1.975 1.975 0 10-3.95 0v22.44a4.774 4.774 0 001.976 3.95 1.272 1.272 0 01.538 1.077v6.822H34.29v-6.822a1.547 1.547 0 01.539-1.077 5.017 5.017 0 001.975-3.95V86.712c.898-1.077.18-1.975-.898-1.975z" fill="#D1D1D1"/></g><defs><clipPath id="clip0"><path fill="#fff" d="M0 0h114v112.384H0z"/></clipPath></defs></svg>