<svg width="108" height="112" fill="none" xmlns="http://www.w3.org/2000/svg"><g clip-path="url(#clip0)"><path d="M59.543 58.47v-1.073a5.364 5.364 0 00-5.364-5.364h-.358a5.471 5.471 0 00-5.006 5.543v1.43a8.01 8.01 0 01-2.504-5.542 7.563 7.563 0 017.51-7.51 7.653 7.653 0 015.722 12.516z" fill="#6A7FD4"/><path d="M53.821 35.94a17.88 17.88 0 00-17.88 17.881 17.488 17.488 0 0012.695 16.987v-8.225a10.084 10.084 0 01-5.186-8.762 10.192 10.192 0 1120.384 0 10.049 10.049 0 01-4.47 8.404v2.146a4.31 4.31 0 012.682-.715 5.561 5.561 0 014.47 2.324 17.702 17.702 0 00-12.695-30.04z" fill="#6A7FD4"/><path d="M84.934 55.073h-10.55V52.39h10.55a6.762 6.762 0 000 2.682zM55.252 23.066h-2.683v10.192h2.683V23.066zM33.437 55.073h-10.37a6.78 6.78 0 000-2.682h10.37v2.682zM77.781 34.152l-7.51 7.331a16.1 16.1 0 00-1.788-1.966l7.331-7.332 1.967 1.967zM39.516 39.159a17.875 17.875 0 00-1.788 1.967l-6.794-6.795a10.244 10.244 0 001.966-1.967l6.616 6.795z" fill="#D1D1D1"/><path d="M99.775 53.642a1.967 1.967 0 11-1.967-1.967 1.985 1.985 0 011.967 1.967z" fill="#6A7FD4"/><path d="M97.808 43.45a10.192 10.192 0 100 20.384 10.192 10.192 0 000-20.384zm0 14.841a4.615 4.615 0 01-4.65-4.649 4.65 4.65 0 019.299 0 4.608 4.608 0 01-2.864 4.305 4.615 4.615 0 01-1.785.344zM55.788 10.192a1.966 1.966 0 11-1.967-1.967 1.985 1.985 0 011.967 1.967z" fill="#6A7FD4"/><path d="M53.821 0A10.192 10.192 0 0043.63 10.192a10.3 10.3 0 0010.192 10.192 10.192 10.192 0 000-20.384zm0 14.841a4.615 4.615 0 01-4.649-4.649 4.65 4.65 0 119.298 0 4.612 4.612 0 01-4.649 4.65zM12.338 53.642a1.967 1.967 0 11-1.967-1.967 1.985 1.985 0 011.967 1.967z" fill="#6A7FD4"/><path d="M10.192 43.45a10.192 10.192 0 1010.192 10.192A10.066 10.066 0 0010.192 43.45zm0 14.841a4.65 4.65 0 110-9.298 4.738 4.738 0 014.65 4.65 4.419 4.419 0 01-4.65 4.648zM89.94 27a6.437 6.437 0 11-6.437-6.437A6.417 6.417 0 0189.941 27zM31.828 27a6.437 6.437 0 11-6.437-6.437A6.418 6.418 0 0131.828 27z" fill="#6A7FD4"/><path d="M81.179 104.424H48.636v7.331h32.543v-7.331zM81 72.238a2.628 2.628 0 00-2.682-2.682 2.753 2.753 0 00-2.682 2.682v13.59a1.43 1.43 0 11-2.861 0V70.629a2.629 2.629 0 00-2.683-2.682 2.754 2.754 0 00-2.682 2.682v13.768a1.43 1.43 0 01-2.86 0V69.02a2.63 2.63 0 00-2.683-2.682 2.754 2.754 0 00-2.682 2.682v13.947a1.43 1.43 0 11-2.86 0v-25.39a2.664 2.664 0 00-2.862-2.683 2.896 2.896 0 00-2.503 2.86v30.398a2.825 2.825 0 01-4.828 1.967l-4.828-4.828a2.647 2.647 0 00-3.933.18 2.79 2.79 0 00.357 3.754l12.517 12.517h30.397V72.238H81z" fill="#D1D1D1"/></g><defs><clipPath id="clip0"><path fill="#fff" d="M0 0h108v111.755H0z"/></clipPath></defs></svg>