<svg xmlns="http://www.w3.org/2000/svg">
<symbol id="aroow-up-small" viewBox="0 0 6.7 4"><path d="M.2 2.9c-.3.3-.3.7 0 .9s.7.3.9 0l2.3-2.3 2.3 2.3c.3.3.7.3.9 0 .3-.3.3-.7 0-.9L3.8.2c-.3-.3-.7-.3-.9 0L.2 2.9z"/></symbol>
<symbol id="arrow-down-small" viewBox="0 0 6.7 4"><path d="M6.5 1.1c.3-.3.3-.7 0-.9-.3-.3-.7-.3-.9 0L3.4 2.5 1.1.2C.8-.1.4-.1.2.2c-.3.3-.3.7 0 .9l2.7 2.7c.3.3.7.3.9 0l2.7-2.7z"/></symbol>
<symbol id="arrow-left" viewBox="0 0 17.6 33.8"><path d="M.3 17.3c-.4-.4-.4-1 0-1.4L15.8.3c.4-.4 1-.4 1.4 0 .4.4.4 1 0 1.4L1.7 17.3c-.4.4-1 .4-1.4 0z"/><path d="M17.3 33.5c-.4.4-1 .4-1.4 0L.3 18c-.4-.4-.4-1 0-1.4.4-.4 1-.4 1.4 0l15.6 15.6c.4.3.4.9 0 1.3z"/></symbol>
<symbol id="arrow-next" viewBox="0 0 24 24"><path d="M12 24C5.4 24 0 18.6 0 12S5.4 0 12 0s12 5.4 12 12-5.4 12-12 12zm0-22C6.5 2 2 6.5 2 12s4.5 10 10 10 10-4.5 10-10S17.5 2 12 2z"/><path d="M17.5 12.5c.3-.3.3-.8 0-1.1l-4.8-4.8c-.3-.3-.8-.3-1.1 0s-.3.8 0 1.1l4.2 4.2-4.2 4.2c-.3.3-.3.8 0 1.1s.8.3 1.1 0l4.8-4.7zM6 12.8h11v-1.5H6v1.5z"/></symbol>
<symbol id="arrow-right-small" viewBox="0 0 4 6.7"><path d="M1.1.2C.8-.1.4-.1.2.2s-.3.7 0 .9l2.3 2.3L.2 5.6c-.3.3-.3.7 0 .9.3.3.7.3.9 0l2.7-2.7c.3-.3.3-.7 0-.9L1.1.2z"/></symbol>
<symbol id="arrow-right" viewBox="0 0 17.6 33.8"><path d="M15.9 17.3L.4 1.7C0 1.3 0 .7.4.3c.4-.4 1-.4 1.4 0l15.5 15.6c.4.4.4 1 0 1.4-.4.4-1 .4-1.4 0z"/><path d="M.3 32.2l15.6-15.6c.4-.4 1-.4 1.4 0s.4 1 0 1.4L1.7 33.5c-.4.4-1 .4-1.4 0-.4-.4-.4-1 0-1.3z"/></symbol>
<symbol id="arrow-up" viewBox="0 0 23.2 11.7"><path d="M23.2 11.6L11.6 0 0 11.6l.1.1h1.2L11.6 1.4l10.3 10.3h1.2l.1-.1z"/></symbol>
<symbol id="bin" viewBox="0 0 13.1 16"><path d="M3.4.7v2.2H2.2c-.4 0-.7.3-.7.7v2.2H.7c-.4 0-.7.3-.7.7s.3.7.7.7h.7v8c0 .4.3.7.7.7h8.8c.4 0 .7-.3.7-.7v-8h.7c.4 0 .7-.3.7-.7s-.2-.7-.6-.7h-.7V3.6c0-.4-.3-.7-.7-.7H9.7V.7C9.7.3 9.4 0 9 0H4.1c-.4 0-.7.3-.7.7zm1 13.8H2.9V7.3h1.5v7.2zm2.9 0H5.8V7.3h1.5v7.2zm2.9 0H8.7V7.3h1.5v7.2zm-5.4-13h3.4V3H4.8V1.5zM9 4.4h1.2v1.4H2.9V4.4H9z"/></symbol>
<symbol id="bold" viewBox="0 0 14.1 16"><path d="M14.1 4.7C14.1 2.1 12 0 9.4 0H1.5C.7 0 0 .7 0 1.5S.7 3 1.5 3h.6v10.2h-.6c-.8 0-1.5.7-1.5 1.5S.7 16 1.5 16h8c2.6 0 4.7-2.1 4.7-4.7 0-1.3-.5-2.4-1.3-3.3.7-.8 1.2-2 1.2-3.3zM9.4 6.5H5V2.9h4.4c1 0 1.8.8 1.8 1.8s-.8 1.8-1.8 1.8zm0 6.6H5V9.5h4.4c1 0 1.8.8 1.8 1.8s-.8 1.8-1.8 1.8z"/></symbol>
<symbol id="burger" viewBox="0 0 14 11"><path d="M0 0h14v1H0zM0 5h14v1H0zM0 10h14v1H0z"/></symbol>
<symbol id="center-align" viewBox="0 0 16 13.1"><path d="M.7 1.5h14.5c.4 0 .7-.3.7-.7s-.2-.8-.6-.8H.7C.3 0 0 .3 0 .7s.3.8.7.8zM2.7 2.9c-.4 0-.7.3-.7.7s.3.7.7.7h10.7c.4 0 .7-.3.7-.7s-.3-.7-.7-.7H2.7zM15.3 5.8H.7c-.4 0-.7.3-.7.7 0 .4.3.7.7.7h14.5c.4 0 .7-.3.7-.7.1-.4-.2-.7-.6-.7zM15.3 11.6H.7c-.4 0-.7.4-.7.8s.3.7.7.7h14.5c.4 0 .7-.3.7-.7.1-.4-.2-.8-.6-.8zM13.3 10.2c.4 0 .7-.3.7-.7 0-.4-.3-.7-.7-.7H2.7c-.4 0-.7.3-.7.7 0 .4.3.7.7.7h10.6z"/></symbol>
<symbol id="check" viewBox="0 0 8.6 6.6"><path d="M8.6 1.3c0-.1-.1-.3-.2-.4L7.7.2C7.6.1 7.5 0 7.4 0c-.2 0-.3.1-.4.2L3.3 3.8 1.7 2.2c-.1-.1-.3-.2-.4-.2s-.3.1-.4.2l-.7.7c-.1.1-.2.3-.2.4 0 .1.1.3.2.4l2 2 .8.8c0 .1.2.1.3.1.1 0 .3-.1.4-.2l.8-.8 4-4c.1 0 .1-.2.1-.3z"/></symbol>
<symbol id="clip" viewBox="0 0 18.1 20"><path d="M18.1 4.5c-.1-1.2-.7-2.3-1.7-3.1l-.5-.4C15.1.4 14 0 13 0c-1.4 0-2.7.6-3.6 1.7L1 12.1c-.8 1-1.1 2.1-1 3.4.1 1.2.7 2.3 1.7 3.1l.5.4c.8.7 1.8 1 2.9 1h.5c1.2-.1 2.3-.7 3.1-1.7l5.7-7c1-1.2.8-3.1-.4-4.1l-.4-.2c-.5-.4-1.2-.6-1.8-.6-.9 0-1.7.4-2.3 1.1l-5.7 7c-.4.5-.3 1.1.2 1.5.2.2.4.2.7.2.3 0 .6-.1.8-.4l5.7-7c.1-.2.4-.3.6-.3.2 0 .3.1.5.2l.3.2c.2.1.3.3.3.5s0 .4-.2.6L7 17c-.5.6-1.2.9-1.9.9-.6 0-1.1-.2-1.5-.5l-.6-.5c-.5-.4-.8-1-.9-1.6-.1-.7.1-1.3.5-1.8L11.1 3c.5-.6 1.2-.9 1.9-.9.6 0 1.1.2 1.5.5l.5.4c1.1.9 1.2 2.4.4 3.4-.2.2-.3.5-.2.8 0 .3.2.5.4.7.2.2.4.2.7.2.3 0 .6-.1.8-.4.8-.7 1.1-1.9 1-3.2z"/></symbol>
<symbol id="code" viewBox="0 0 14 16"><path d="M13.7 3.8L7.3.1c-.2-.1-.4-.1-.6 0L.3 3.8c-.2.1-.3.3-.3.5v7.4c0 .2.1.4.3.5l6.4 3.7c.2.1.4.1.6 0l6.4-3.7c.2-.1.3-.3.3-.5V4.3c0-.2-.1-.4-.3-.5zm-.9 7.5L7 14.7l-5.8-3.3V4.7L7 1.3l5.8 3.3v6.7zM4.5 6.9L3.4 8l1.1 1.1c.2.2.2.6 0 .9-.2.2-.6.2-.9 0L2 8.4c-.2-.2-.2-.6 0-.8L3.6 6c.2-.2.6-.2.9 0 .2.2.2.6 0 .9zm5 2.2L10.7 8 9.5 6.9c-.2-.3-.2-.7 0-.9.2-.2.6-.2.9 0L12 7.6c.2.2.2.6 0 .9L10.4 10c-.2.2-.6.2-.9 0-.2-.2-.2-.6 0-.9zm-4.1.8l2.2-4.4c.2-.3.5-.4.8-.3.3.2.4.5.3.8l-2.2 4.4c-.2.3-.5.4-.8.3-.4-.1-.5-.5-.3-.8z"/></symbol>
<symbol id="cross" viewBox="0 0 18.4 18.4"><path d="M.01 1.414L1.426 0l16.97 16.97-1.414 1.415z"/><path d="M.01 16.97L16.982 0l1.414 1.414-16.97 16.97z"/></symbol>
<symbol id="edit-button" viewBox="0 0 15.9 16"><path d="M15.3.5c-.4-.3-.9-.5-1.4-.5-.6 0-1.1.2-1.5.6L5.3 8.4c0 .1-.1.2-.1.3l-.8 2.5c-.1.3 0 .6.1.9.2.2.5.4.8.4.1 0 .3 0 .4-.1l2.4-1.1c.1 0 .2-.1.2-.2l7.1-7.8c.8-.8.7-2-.1-2.8zM5.9 10.7l.5-1.5.9.9-1.4.6zm8.5-8.3L8.3 9.1l-.9-.9 6.1-6.6c.1-.1.3-.2.5-.2s.3.1.4.2c.2.2.2.6 0 .8z"/><path d="M13.9 6.3c-.4 0-.7.3-.7.7v5.8c0 1-.8 1.7-1.7 1.7H3.1c-1 0-1.7-.8-1.7-1.7V4.6c0-1 .8-1.7 1.7-1.7h6c.4 0 .7-.3.7-.7s-.3-.7-.6-.7h-6C1.4 1.5 0 2.9 0 4.6v8.3C0 14.6 1.4 16 3.1 16h8.3c1.7 0 3.1-1.4 3.1-3.1V7c.1-.3-.2-.7-.6-.7z"/></symbol>
<symbol id="email" viewBox="0 0 19.6 16"><path d="M18.8.8c-.5-.5-1.1-.8-1.7-.8H2.5C1.8 0 1.2.3.8.8.3 1.3 0 1.9 0 2.6v10.7A2.732 2.732 0 0 0 2.7 16h14.2a2.732 2.732 0 0 0 2.7-2.7V2.6c0-.7-.3-1.3-.8-1.8zM2.2 1.9c.1-.1.3-.1.5-.1h14.2c.2 0 .3 0 .5.1.1.1.3.2.3.4L9.8 7.8 1.9 2.3c0-.2.2-.3.3-.4zm15.6 11.4c0 .2-.1.5-.3.6s-.4.3-.6.3H2.7c-.2 0-.5-.1-.6-.3s-.3-.4-.3-.6v-9l7.5 5.2c.1.1.3.2.5.2s.4-.1.5-.2l7.5-5.2v9z"/></symbol>
<symbol id="eye" viewBox="0 0 28.9 15.5"><path d="M14.4 0C7.4 0 .6 6.7.3 7c-.2.2-.3.5-.3.7 0 .3.1.6.3.8.3.3 7.1 7 14.1 7s13.9-6.7 14.1-7c.2-.2.3-.4.3-.7 0-.3-.1-.5-.3-.7-.2-.4-7-7.1-14.1-7.1zm0 13.4c-4.9 0-10-4-11.9-5.7C4.4 6 9.5 2 14.4 2s10 4 11.9 5.7c-1.8 1.7-6.9 5.7-11.9 5.7z"/><path d="M10.8 7.7c0 2 1.6 3.7 3.7 3.7s3.7-1.6 3.7-3.7S16.5 4 14.5 4s-3.7 1.7-3.7 3.7zm5.3 0c0 .9-.7 1.6-1.6 1.6-.9 0-1.6-.7-1.6-1.6 0-.9.7-1.6 1.6-1.6.8 0 1.6.7 1.6 1.6z"/></symbol>
<symbol id="fb" viewBox="0 0 9.6 18.6"><path d="M9.6.1C9.3.1 8.3 0 7.1 0 4.6 0 2.8 1.5 2.8 4.4v2.4H0v3.3h2.8v8.5h3.4v-8.5H9l.4-3.3H6.3V4.7c0-.9.3-1.6 1.6-1.6h1.8v-3z"/></symbol>
<symbol id="font-larger" viewBox="0 0 18.6 17.4"><path d="M16 0l-2.6 3h5.2L16 0zM15.1 15.6h-.7L9.6 3.2c-.1-.4-.4-.6-.8-.6H7.2c-.4 0-.7.2-.8.6L1.7 15.6H.9c-.5 0-.9.4-.9.9s.4.9.9.9h2.5c.5 0 .9-.4.9-.9 0-.4-.3-.8-.7-.9l.9-2.4h7.1l.9 2.4c-.4.1-.7.4-.7.9s.4.9.9.9h2.5c.5 0 .9-.4.9-.9-.1-.5-.5-.9-1-.9zm-9.9-4.1l2.7-7.1h.4l2.7 7.1H5.2z"/></symbol>
<symbol id="font-smaller" viewBox="0 0 18.6 16.5"><path d="M16 3l2.6-3h-5.2zM11.3 15.2h-.6L7.2 5.9c-.1-.3-.3-.4-.6-.4H5.4c-.3 0-.5.2-.6.4l-3.5 9.3H.7c-.4 0-.7.3-.7.7 0 .4.3.7.7.7h1.9c.4 0 .7-.3.7-.7 0-.3-.2-.6-.5-.6l.7-1.8h5.3l.7 1.8c-.3.1-.6.3-.6.7 0 .4.3.7.7.7h1.9c.4 0 .7-.3.7-.7-.2-.5-.5-.8-.9-.8zm-7.4-3.1l2-5.3h.3l2 5.3H3.9z"/></symbol>
<symbol id="italic" viewBox="0 0 10.2 16"><path d="M9.5 0H3.6c-.4 0-.7.3-.7.7 0 .4.3.7.7.7h2L3 14.5H.7c-.4 0-.7.3-.7.7 0 .5.3.8.7.8h5.8c.4 0 .7-.3.7-.7 0-.4-.3-.7-.7-.7h-2L7.1 1.5h2.3c.4 0 .7-.3.7-.7.1-.5-.2-.8-.6-.8z"/></symbol>
<symbol id="left-align" viewBox="0 0 16 13.1"><path d="M.7 1.5h14.5c.4 0 .7-.3.7-.7s-.2-.8-.6-.8H.7C.3 0 0 .3 0 .7s.3.8.7.8zM.7 4.4h10.7c.4 0 .7-.3.7-.7s-.3-.7-.7-.7H.7c-.4-.1-.7.2-.7.6s.3.8.7.8zM15.3 5.8H.7c-.4 0-.7.3-.7.7 0 .4.3.7.7.7h14.5c.4 0 .7-.3.7-.7.1-.4-.2-.7-.6-.7zM15.3 11.6H.7c-.4 0-.7.4-.7.8s.3.7.7.7h14.5c.4 0 .7-.3.7-.7.1-.4-.2-.8-.6-.8zM.7 10.2h10.7c.4 0 .7-.3.7-.7 0-.4-.3-.7-.7-.7H.7c-.4-.1-.7.3-.7.7 0 .4.3.7.7.7z"/></symbol>
<symbol id="letter" viewBox="0 0 16 14.8"><path d="M15.1 13h-.7L9.6.6C9.5.2 9.2 0 8.8 0H7.2c-.3 0-.7.2-.8.6L1.7 13H.9c-.5 0-.9.4-.9.9s.4.9.9.9h2.5c.5 0 .9-.4.9-.9 0-.4-.3-.8-.7-.9l.9-2.4h7.1l.9 2.4c-.4.1-.7.4-.7.9s.4.9.9.9h2.5c.5 0 .9-.4.9-.9-.1-.5-.5-.9-1-.9zM5.2 8.9l2.7-7.1h.4L11 8.9H5.2z"/></symbol>
<symbol id="link" viewBox="0 0 16 16"><path d="M13.6.6c-.8-.8-2.1-.8-2.9 0L7.3 4c-.8.8-.8 2.1 0 2.9l.4.4-.4.5-.4-.5c-.8-.8-2.1-.8-2.9 0L.6 10.7c-.8.8-.8 2.1 0 2.9l1.8 1.8c.4.4.9.6 1.4.6.5 0 1.1-.2 1.5-.6L8.7 12c.8-.8.8-2.1 0-2.9l-.5-.4.5-.5.4.4c.8.8 2.1.8 2.9 0l3.4-3.4c.8-.8.8-2.1 0-2.9L13.6.6zM7.8 11.1l-3.4 3.4c-.3.3-.8.3-1.1 0l-1.8-1.8c-.3-.3-.3-.8 0-1.1l3.4-3.4c.3-.3.8-.3 1.1 0l.4.4-.6.7c-.2.2-.2.6 0 .9.2.2.6.2.9 0l.7-.7.4.5c.3.3.3.8 0 1.1zm6.7-6.7l-3.4 3.4c-.3.3-.8.3-1.1 0l-.4-.5.7-.7c.2-.2.2-.6 0-.9-.2-.2-.6-.2-.9 0l-.7.7-.5-.4c-.3-.3-.3-.8 0-1.1l3.4-3.4c.3-.3.8-.3 1.1 0l1.8 1.8c.3.3.3.8 0 1.1z"/></symbol>
<symbol id="linux" viewBox="0 0 116.2 40"><path d="M25.7 39.2H0v-.9c4.5-.5 4.9-.9 4.9-4.8V7.2c0-3.9-.4-4.3-4.9-4.8v-.9h14.7v.9c-4.9.4-5.4.9-5.4 4.8v26.7c0 3.7.6 4.3 4.3 4.3 6.8 0 10.6-4.8 11.3-14h.8v15z"/><path d="M37.8 6.8c-1.5 0-2.7-1.5-2.7-3.4S36.3 0 37.8 0c1.5 0 2.7 1.5 2.7 3.4s-1.3 3.4-2.7 3.4zm3.6 22.5c-1.7 6.5-4.6 10.4-7.6 10.4-2.5 0-4.2-2.3-4.2-5.9.1-1.8.4-3.7.9-5.4l2.3-8.8c0-.2.2-.7.5-1.8.2-.7.4-1.4.4-2.1 0-1.1-.5-1.9-1.4-1.9-2.1 0-4 2.9-6.3 9.5l-.8-.4c1.2-4.2 2.7-7.1 4.3-9 .4-.4.8-.8 1.4-1 .5-.2 1.1-.4 1.7-.4 2.6 0 4.4 2.4 4.4 5.8-.2 2.5-.6 4.9-1.3 7.3l-1.1 4-.9 3.3-.5 1.6c-.2.7-.3 1.3-.3 2 0 1.1.5 1.9 1.3 1.9 2.1 0 4.5-3.5 6.3-9.4l.9.3z"/><path d="M55.8 12.1c1 0 1.9.2 2.8.6.9.4 1.6 1.1 2.2 1.8 1.1 1.6 1.3 2.7 1.3 7.6V34c0 3.3.7 4 4.3 4.3v.9H53.6v-.9c3.7-.4 4.3-1 4.3-4.3V22.4c0-7.4-.4-8.4-3.2-8.4-2.6 0-5 2.2-6.2 5.4-1.1 3.1-1.4 5.3-1.4 10.8V34c0 3.3.6 3.9 4.3 4.3v.9H38.7v-.9c3.7-.4 4.3-1 4.3-4.3V18c0-2.9-.1-3.4-1.2-3.9-.6-.3-1.2-.3-3.3-.5v-1c2.9-.1 5.8-.3 8.7-.7v8.3c1.5-5.1 4.7-8.1 8.6-8.1zM77.6 12.7c2.9-.1 5.8-.3 8.7-.7v22c0 3.3.6 4 4.3 4.3v.9H90l-3.9.2c-1.6.1-2.7.2-3.2.2-.3 0-.5.1-.8.1v-8.1c-1 2.7-1.4 3.6-2.5 5-.7 1-1.6 1.8-2.6 2.3-1 .6-2.2.9-3.4.9-1 0-1.9-.2-2.7-.7-.8-.5-1.5-1.1-2-1.9-1.1-1.8-1.4-3.7-1.4-7.5V18.1c0-2.9-.2-3.4-1.2-3.9-1.1-.3-2.2-.5-3.4-.5v-1c3-.1 5.9-.3 8.9-.7v19.1c0 4.9 1 7.2 3.2 7.2 2.5 0 5.2-3 6.4-7.3.6-2.5.9-5 .8-7.6V18c0-2.9-.1-3.4-1.2-3.9-1.1-.3-2.2-.5-3.3-.5l-.1-.9z"/><path d="M111.3 34.5c1.8 3.2 2.4 3.6 5 3.9v.9h-12.4v-.9c2.6-.3 3.4-.6 3.4-1.6-.1-.5-.2-.9-.5-1.4L106 34l-4-6.8-3 5.2c-1.1 2-1.7 3.3-1.7 4.1 0 1.3.8 1.8 3.5 2v.9H90.4v-.9c2.7-.4 3.8-1.1 5.8-4 1.1-1.6 1.2-1.8 3.1-5l2-3.5-4.8-8.3c-1.7-2.9-2.4-3.5-5.1-3.8V13h12.1v.9c-2.2.2-3 .6-3 1.5.1.4.2.7.4 1.1l.7 1.2 3.4 5.9 2.7-4.5c.8-1.4 1.2-2.4 1.2-3.2 0-1.1-.8-1.6-3.3-1.9v-.9h9.7v.9c-2.9.5-4.1 1.4-5.8 4.4l-1.2 2-2.5 4.3 5.5 9.8z"/></symbol>
<symbol id="list-u" viewBox="0 0 16 13.1"><path d="M3.6 1.5h11.6c.4 0 .7-.3.7-.7s-.2-.8-.6-.8H3.6c-.4 0-.7.3-.7.7s.3.8.7.8zM15.3 2.9H3.6c-.4 0-.7.3-.7.7s.3.7.7.7h11.6c.5.1.8-.3.8-.7s-.3-.7-.7-.7zM15.3 5.8H3.6c-.4 0-.7.3-.7.7 0 .4.3.7.7.7h11.6c.4 0 .7-.3.7-.7.1-.4-.2-.7-.6-.7zM15.3 11.6H3.6c-.4 0-.7.3-.7.7 0 .4.3.7.7.7h11.6c.4 0 .7-.3.7-.7.1-.3-.2-.7-.6-.7zM15.3 8.7H3.6c-.4 0-.7.3-.7.7 0 .4.3.7.7.7h11.6c.4 0 .7-.3.7-.7.1-.3-.2-.7-.6-.7zM.7 0C.5 0 .3.1.2.2.1.3 0 .5 0 .7s.1.4.2.5c.1.1.3.2.5.2s.4-.1.5-.2c.1-.1.2-.3.2-.5S1.3.3 1.2.2C1.1.1.9 0 .7 0zM.7 2.9c-.2 0-.4.1-.5.2-.1.2-.2.3-.2.5s.1.4.2.6c.1.1.3.2.5.2s.4-.1.5-.2c.2-.2.3-.4.3-.6 0-.2-.1-.4-.2-.5-.2-.1-.4-.2-.6-.2zM.7 5.8c-.2 0-.4.1-.5.2-.1.2-.2.4-.2.5 0 .2.1.4.2.5.1.1.3.2.5.2s.4-.1.5-.2c.1-.1.2-.3.2-.5s-.1-.4-.2-.5c-.1-.1-.3-.2-.5-.2zM.7 11.6c-.2 0-.4.1-.5.2-.1.2-.2.4-.2.6s.1.4.2.5c.1.1.3.2.5.2s.4-.1.5-.2c.1-.1.2-.3.2-.5s0-.4-.2-.6c-.1-.1-.3-.2-.5-.2zM.7 8.7c-.2 0-.4.1-.5.2-.1.2-.2.4-.2.6 0 .1.1.3.2.5.1.1.3.2.5.2s.4-.1.5-.2c.1-.1.2-.3.2-.5s-.1-.4-.2-.5c-.1-.2-.3-.3-.5-.3z"/></symbol>
<symbol id="list" viewBox="0 0 16 13.6"><path d="M5.2 1.5h10.1c.4 0 .8-.3.8-.8-.1-.4-.4-.7-.9-.7h-10c-.5 0-.8.3-.8.8 0 .4.3.7.8.7zM15.2 3h-10c-.5 0-.8.4-.8.8s.3.8.8.8h10.1c.4 0 .8-.3.8-.8-.1-.4-.4-.8-.9-.8zM15.2 6.1h-10c-.4 0-.8.3-.8.8 0 .4.3.8.8.8h10.1c.4 0 .8-.3.8-.8-.1-.5-.4-.8-.9-.8zM15.2 12.1h-10c-.4 0-.8.3-.8.8s.3.8.8.8h10.1c.4 0 .8-.3.8-.8s-.4-.8-.9-.8zM15.2 9.1h-10c-.4 0-.8.3-.8.8 0 .4.3.8.8.8h10.1c.4 0 .8-.3.8-.8-.1-.5-.4-.8-.9-.8zM.9 1.3v1.9c0 .2.2.4.4.4s.4-.2.4-.4V.4c0-.2-.2-.4-.4-.4S1 .1 1 .2L.7.6C.6.7.5.8.5.9c0 .2.2.4.4.4zM.4 8.6h1.5c.2 0 .4-.2.4-.4s-.2-.4-.4-.4H.8c0-.1.3-.3.5-.4.4-.3.9-.7.9-1.3 0-.6-.5-1.1-1.1-1.1-.6 0-1 .4-1 .9 0 .3.2.4.4.4s.4-.2.4-.4c0-.1 0-.2.3-.2s.3.3.3.3c0 .2-.3.5-.6.7-.5.4-.9.7-.9 1.1v.4c0 .3.2.4.4.4zM2.1 11.1c0-.6-.4-1-1-1-.8 0-1.1.6-1.1.9 0 .4.3.4.4.4.2 0 .4-.2.4-.4 0-.1 0-.2.3-.2.2 0 .2 0 .2.3 0 .2-.1.3-.3.3-.2 0-.4.2-.4.4s.2.4.4.4c.3 0 .3.1.3.3v.1c0 .3-.1.4-.3.4-.3 0-.3-.2-.3-.2 0-.2-.1-.4-.4-.4-.2 0-.4.1-.4.4 0 .5.4.9 1.1.9.7 0 1.1-.4 1.1-1.1v-.1c0-.3-.1-.5-.3-.7.3-.2.3-.5.3-.7z"/></symbol>
<symbol id="logout" viewBox="0 0 21 21"><path d="M2.6 21h7.8c.5 0 .9-.4.9-.9s-.4-.9-.9-.9H2.6c-.5 0-.9-.4-.9-.9V2.7c0-.5.4-.9.9-.9h7.8c.5 0 .9-.4.9-.9s-.4-.9-.9-.9H2.6C1.2 0 0 1.2 0 2.7v15.7C0 19.8 1.2 21 2.6 21z"/><path d="M15.4 4.6c-.3-.3-.9-.3-1.2 0-.3.3-.3.9 0 1.2L18 9.6H7.8c-.4 0-.8.4-.8.9s.4.9.9.9H18l-3.8 3.7c-.3.3-.3.9 0 1.2.2.2.4.3.6.3.2 0 .4-.1.6-.3l5.3-5.2c.2-.2.3-.4.3-.6 0-.2-.1-.5-.3-.6l-5.3-5.3z"/></symbol>
<symbol id="minus" viewBox="0 0 10 2"><path d="M0 0h10v2H0z"/></symbol>
<symbol id="pdf" viewBox="0 0 32 32"><path d="M20.6.2c-.1-.2-.3-.2-.6-.2H7.6C5.3 0 3.4 1.9 3.4 4.2v23.6c0 2.3 1.9 4.2 4.2 4.2h16.9c2.3 0 4.2-1.9 4.2-4.2V9c0-.2-.1-.4-.2-.5L20.6.2zm.2 2.5l5.3 5.5h-3.4c-1 0-1.8-.8-1.8-1.8V2.7zm3.7 27.7H7.6c-1.4 0-2.7-1.2-2.7-2.7V4.1c0-1.4 1.2-2.7 2.7-2.7h11.7v4.9c0 1.9 1.5 3.4 3.4 3.4h4.5v18c0 1.5-1.2 2.7-2.7 2.7z"/><path d="M22.4 25.1H9.7c-.4 0-.8.3-.8.8 0 .4.3.8.8.8h12.7c.4 0 .8-.3.8-.8s-.4-.8-.8-.8zM15.5 22.3c.1.2.3.2.6.2.2 0 .4-.1.6-.2l4.5-4.9c.3-.3.3-.8 0-1.1-.3-.3-.8-.3-1.1 0l-3.2 3.4v-8.4c0-.4-.3-.8-.8-.8-.4 0-.8.3-.8.8v8.4l-3.2-3.4c-.3-.3-.8-.3-1.1 0-.3.3-.3.8 0 1.1l4.5 4.9z"/></symbol>
<symbol id="person" viewBox="0 0 16.2 18"><path d="M14.9 12.1c-.8-.8-2-1.3-3.2-1.3H4.5c-1.2 0-2.3.5-3.2 1.3-.8.9-1.3 2-1.3 3.2v1.8c0 .2.1.5.3.6.1.2.4.3.6.3.2 0 .5-.1.6-.3.2-.2.3-.4.3-.6v-1.8a2.732 2.732 0 0 1 2.7-2.7h7.2a2.732 2.732 0 0 1 2.7 2.7v1.8c0 .2.1.5.3.6.2.2.4.3.6.3s.5-.1.6-.3c.2-.2.3-.4.3-.6v-1.8c0-1.2-.5-2.3-1.3-3.2zM5.6 8.2c.7.5 1.6.8 2.5.8 1.2 0 2.3-.5 3.2-1.3.8-.8 1.3-2 1.3-3.2 0-.9-.3-1.8-.8-2.5S10.6.7 9.8.3C9 0 8.1-.1 7.2.1S5.5.7 4.9 1.3s-1 1.4-1.2 2.3c-.2.9-.1 1.8.2 2.6.4.8 1 1.5 1.7 2zM5.9 3c.3-.4.7-.8 1.2-1 .5-.2 1-.3 1.6-.2.5.2.9.4 1.3.8s.6.8.7 1.4.1 1.1-.2 1.6c-.1.4-.5.8-.9 1.1-.4.3-1 .5-1.5.5a2.732 2.732 0 0 1-2.7-2.7c0-.5.2-1.1.5-1.5z"/></symbol>
<symbol id="plus" viewBox="0 0 10 10"><path d="M0 4h10v2H0z"/><path d="M4 0h2v10H4z"/></symbol>
<symbol id="right-align" viewBox="0 0 16 16"><path d="M15.3 13.1H.7c-.4 0-.7.3-.7.7 0 .4.3.7.7.7h14.5c.4 0 .7-.3.7-.7.1-.4-.2-.7-.6-.7zM15.3 10.2H4.6c-.4 0-.7.3-.7.7 0 .4.3.7.7.7h10.7c.4 0 .7-.3.7-.7 0-.4-.3-.7-.7-.7zM15.3 7.3H.7c-.4 0-.7.3-.7.7 0 .4.3.7.7.7h14.5c.5 0 .8-.3.8-.7 0-.4-.3-.7-.7-.7zM.7 2.9h14.5c.4 0 .7-.3.7-.7s-.3-.7-.7-.7H.7c-.4 0-.7.3-.7.7s.3.7.7.7zM15.3 4.4H4.6c-.4 0-.7.3-.7.7s.3.7.7.7h10.7c.4 0 .7-.3.7-.7s-.3-.7-.7-.7z"/></symbol>
<symbol id="round-check" viewBox="0 0 140 134"><path d="M85.8 130.5c28.6-7.9 48.1-34 48.1-63.7v-5.5c0-3.6-2.4-6.1-6.1-6.1s-6.1 2.4-6.1 6.1v5.5c0 24.3-15.8 44.9-39 52.2-23.1 7.3-48.1-2.4-61.5-22.5-13.4-20-11-46.1 4.3-64.9S67 7.3 89.5 17c3 1.2 6.7 0 7.9-3 1.2-3 0-6.7-3-7.9C67-6.1 35.3 1.2 15.8 23.7-3 46.1-4.9 78.3 11 103.2c15.8 24.9 46.2 35.8 74.8 27.3z"/><path d="M140 12.1c0-1.5-.6-3-1.8-4.2-2.4-2.4-6.1-2.4-8.5 0L67 70.4l-14-14c-2.4-2.4-6.1-2.4-8.5 0-2.4 2.4-2.4 6.1 0 8.5l18.3 18.2c2.4 2.4 6.1 2.4 8.5 0l67-66.8c1.1-1.1 1.7-2.6 1.7-4.2z"/></symbol>
<symbol id="underline" viewBox="0 0 16 16"><path d="M12.3 0c-.4 0-.8.4-.8.8v6.9c0 1.9-1.6 3.5-3.5 3.5-.9 0-1.8-.4-2.5-1-.7-.7-1-1.5-1-2.5V.8c0-.4-.3-.8-.8-.8-.4 0-.8.4-.8.8v6.9c0 1.4.5 2.6 1.5 3.6s2.2 1.5 3.6 1.5c2.8 0 5.1-2.3 5.1-5.1V.8c0-.4-.4-.8-.8-.8zM12.3 14.4H3.7c-.4 0-.8.4-.8.8s.4.8.8.8h8.5c.4 0 .8-.4.8-.8s-.3-.8-.7-.8z"/></symbol>
<symbol id="vk" viewBox="0 0 21.4 12.2"><path d="M21.4.9s-.2-.4-1.1-.3h-3.2c-.2 0-.4.1-.4.1s-.2.1-.3.3c-.5 1.4-1.2 2.5-1.2 2.5-1.4 2.4-2 2.6-2.2 2.4-.5-.3-.4-1.4-.4-2.2 0-2.4.4-3.3-.7-3.6-.4 0-.7-.1-1.6-.1-1.1 0-2.1 0-2.7.3-.3.1-.6.6-.4.6.2 0 .7.1.9.5 0 0 .3.5.3 1.5.2 2.7-.4 3-.4 3-.4.3-1.2-.1-2.3-2.4 0 0-.6-1.1-1.1-2.4-.2-.2-.3-.4-.3-.4S4.1.6 3.8.5H.7C.2.5.1.7.1.7s-.2.2 0 .5c2.4 5.6 5.1 8.4 5.1 8.4s2.5 2.6 5.3 2.4h1.3c.4 0 .6-.2.6-.2s.2-.2.2-.6c0-1.7.8-2 .8-2 .8-.2 1.8 1.7 2.9 2.4 0 0 .8.6 1.4.4h2.9c1.5 0 .8-1.3.8-1.3-.1-.1-.4-.9-2.1-2.5-1.8-1.7-1.6-1.4.6-4.3 1.1-1.5 1.7-2.6 1.5-3z"/></symbol>
</svg>
